<svg width="400" height="119" viewBox="0 0 400 119" fill="none" xmlns="http://www.w3.org/2000/svg">
<rect width="400" height="119" rx="19" fill="#2F59A1"/>
<path d="M195.8 65.05H203.2V78H195.8V65.05ZM217.048 50.4831L200.399 41.2331C199.839 40.9223 199.161 40.9223 198.601 41.2331L181.952 50.4831C181.059 50.979 180.737 52.1054 181.233 52.9988C181.569 53.6058 182.201 53.9212 182.85 53.9224V76.15C182.85 77.1717 183.679 78 184.7 78H192.1V63.2C192.1 62.1783 192.928 61.35 193.95 61.35H205.05C206.072 61.35 206.9 62.1783 206.9 63.2V78H214.3C215.321 78 216.15 77.1717 216.15 76.15V53.9498C216.799 53.9491 217.429 53.6062 217.767 52.9988C218.263 52.1054 217.941 50.979 217.048 50.4831Z" fill="#2F59A1"/>
<path d="M69.8001 65.05H77.1999V78H69.8001V65.05ZM91.0484 50.4831L74.3988 41.2331C73.8387 40.9223 73.1613 40.9223 72.6012 41.2331L55.9516 50.4831C55.0591 50.979 54.7366 52.1054 55.2334 52.9988C55.5695 53.6058 56.201 53.9212 56.8503 53.9224V76.15C56.8503 77.1717 57.6787 78 58.7003 78H66.1002V63.2C66.1002 62.1783 66.9285 61.35 67.9501 61.35H79.0499C80.0715 61.35 80.8998 62.1783 80.8998 63.2V78H88.2997C89.3213 78 90.1497 77.1717 90.1497 76.15V53.9498C90.7995 53.9491 91.4291 53.6062 91.7666 52.9988C92.2634 52.1054 91.9409 50.979 91.0484 50.4831Z" fill="#BBF6E2"/>
<rect x="137" y="22" width="72" height="75" rx="19" fill="#BBF6E2"/>
<path d="M192 47.8333H184.348L183.079 44.0256C182.443 42.1161 180.664 40.8333 178.652 40.8333H168.015C166.003 40.8333 164.223 42.1161 163.59 44.0234L162.318 47.8333H154.667C152.094 47.8333 150 49.9262 150 52.4999V75.8333C150 77.123 151.044 78.1666 152.333 78.1666H194.333C195.623 78.1666 196.667 77.123 196.667 75.8333V52.4999C196.667 49.9262 194.573 47.8333 192 47.8333ZM159.333 59.6368C158.045 59.6368 157 58.592 157 57.3034C157 56.0147 158.045 54.9701 159.333 54.9701C160.622 54.9701 161.667 56.0147 161.667 57.3034C161.667 58.592 160.622 59.6368 159.333 59.6368ZM173.333 71.1666C168.186 71.1666 164 66.9807 164 61.8333C164 56.6869 168.186 52.4999 173.333 52.4999C178.481 52.4999 182.667 56.6869 182.667 61.8333C182.667 66.9807 178.481 71.1666 173.333 71.1666Z" fill="#56B2E5"/>
<path d="M173.333 66.5001C175.91 66.5001 178 64.4107 178 61.8334C178 59.2561 175.91 57.1667 173.333 57.1667C170.756 57.1667 168.667 59.2561 168.667 61.8334C168.667 64.4107 170.756 66.5001 173.333 66.5001Z" fill="#56B2E5"/>
<path d="M252.316 59.425C254.368 59.425 256.031 57.7618 256.031 55.7101C256.031 53.6584 254.368 51.9951 252.316 51.9951C250.264 51.9951 248.601 53.6584 248.601 55.7101C248.601 57.7618 250.264 59.425 252.316 59.425Z" fill="#BBF6E2"/>
<path d="M263.381 45.5739C257.279 39.4754 247.353 39.4754 241.251 45.5739C238.296 48.5288 236.667 52.4596 236.667 56.639C236.667 60.8201 238.296 64.7491 241.251 67.704L251.003 77.4558C251.365 77.8186 251.841 78 252.316 78C252.791 78 253.266 77.8186 253.629 77.4558L263.381 67.704C266.336 64.7491 267.965 60.8201 267.965 56.639C267.965 52.4596 266.336 48.5288 263.381 45.5739ZM252.316 63.1401C248.218 63.1401 244.886 59.8079 244.886 55.7102C244.886 51.6125 248.218 48.2803 252.316 48.2803C256.414 48.2803 259.746 51.6125 259.746 55.7102C259.746 59.8079 256.414 63.1401 252.316 63.1401Z" fill="#BBF6E2"/>
<path fill-rule="evenodd" clip-rule="evenodd" d="M324.171 79.7303C325.302 79.9109 326.408 80 327.516 80C332.669 80 337.553 78.0114 341.259 74.3039C345.781 69.7804 347.769 63.5635 346.73 57.2111C345.395 49.1606 338.842 42.6051 330.793 41.2704C324.443 40.2304 318.204 42.219 313.705 46.7425C309.208 51.2637 307.218 57.4812 308.28 63.8353C309.615 71.8607 316.148 78.3956 324.171 79.7303ZM316.554 73.0836C316.417 72.9464 316.305 72.8344 316.171 72.7201H316.191V71.7944C316.191 68.0412 319.221 65.0102 322.951 65.0102H332.016C335.768 65.0102 338.796 68.064 338.796 71.7944V72.743C338.727 72.8116 338.661 72.8733 338.592 72.935C338.524 72.999 338.458 73.0607 338.389 73.127L338.32 73.1727C335.293 75.751 331.495 77.175 327.493 77.175C323.492 77.175 319.651 75.751 316.644 73.1498L316.554 73.0836ZM322.363 49.9976C323.675 48.505 325.505 47.6913 327.47 47.6913L327.493 47.7141C327.923 47.7141 328.375 47.737 328.805 47.8284C331.449 48.3244 333.643 50.5188 334.138 53.1634C334.591 55.5817 333.777 57.9795 331.947 59.5842C330.117 61.1682 327.608 61.6643 325.233 60.8963C323.288 60.2631 321.684 58.6585 321.051 56.7134C320.284 54.3179 320.759 51.8082 322.363 49.9976Z" fill="#BBF6E2"/>
</svg>
