<svg preserveAspectRatio="none" width="100%" height="100%" overflow="visible" style="display: block;" viewBox="0 0 39 39" fill="none" xmlns="http://www.w3.org/2000/svg">
<path id="Vector" fill-rule="evenodd" clip-rule="evenodd" d="M16.171 38.7303C17.3022 38.9109 18.4082 39 19.5165 39C24.6694 39 29.5526 37.0114 33.2591 33.3039C37.7813 28.7804 39.7694 22.5635 38.7297 16.2111C37.3952 8.16057 30.8416 1.60513 22.7934 0.270396C16.4433 -0.769592 10.2044 1.21898 5.70521 5.74249C1.2081 10.2637 -0.782326 16.4812 0.280367 22.8353C1.61485 30.8607 8.1479 37.3956 16.171 38.7303ZM8.55446 32.0836C8.41736 31.9464 8.30539 31.8344 8.17057 31.7201H8.19113V30.7944C8.19113 27.0412 11.2212 24.0102 14.9507 24.0102H24.0157C27.7679 24.0102 30.7957 27.064 30.7957 30.7944V31.743C30.7272 31.8116 30.6609 31.8733 30.5924 31.935C30.5238 31.999 30.4575 32.0607 30.389 32.127L30.3204 32.1727C27.2926 34.751 23.4948 36.175 19.4934 36.175C15.4922 36.175 11.651 34.751 8.64362 32.1498L8.55446 32.0836ZM14.3632 8.9976C15.6749 7.505 17.5053 6.69129 19.4705 6.69129L19.4933 6.71415C19.923 6.71415 20.3754 6.73701 20.805 6.82843C23.4489 7.32444 25.6426 9.51878 26.1385 12.1634C26.5909 14.5817 25.7774 16.9795 23.9471 18.5842C22.1167 20.1682 19.6076 20.6643 17.2331 19.8963C15.2885 19.2631 13.6843 17.6585 13.0514 15.7134C12.2836 13.3179 12.7591 10.8082 14.3632 8.9976Z" fill="var(--fill-0, #BBF6E2)"/>
</svg>
