<svg preserveAspectRatio="none" width="100%" height="100%" overflow="visible" style="display: block;" viewBox="0 0 55 79" fill="none" xmlns="http://www.w3.org/2000/svg">
<g id="Group">
<path id="Vector" d="M44.3009 17.9348C44.2695 17.9468 44.0948 17.748 44.0298 17.8505C43.4418 19.2673 42.5551 20.7794 41.578 21.9685L41.6262 22.1746C42.125 22.4975 42.684 22.7372 43.1466 23.1179C43.5719 23.471 43.7141 23.9288 44.0671 24.2818C44.3286 24.5433 45.1876 24.7686 44.8997 25.2541C44.6936 25.5987 44.3635 25.3963 44.1334 25.2589C43.6948 24.9975 42.7575 24.3192 42.3503 23.9963C41.943 23.6734 41.6286 23.1951 41.2394 22.83C41.1756 22.9228 41.0418 22.8782 41.037 22.8866C40.3057 23.889 39.7695 25.1637 38.6816 25.7264C38.7695 25.7649 38.8442 25.8372 38.9322 25.8758C39.0201 25.9143 39.3743 25.7698 39.5249 25.8842L43.3924 27.8071L42.7695 28.6939C42.5828 28.6457 42.3731 28.618 42.1997 28.5228C41.0418 27.8818 39.8587 26.9565 38.6225 26.4011C38.478 26.3372 38.3177 26.3927 38.2936 26.3818C36.6996 30.2071 33.5382 33.071 31.4105 36.5939L31.3815 36.93C31.7008 37.1927 32.2105 37.6819 32.4394 38.0035C32.5623 38.177 32.4791 38.4891 32.6623 38.706C32.8996 38.9855 33.4213 39.0975 33.4671 39.577C33.4803 39.6903 33.4153 39.7758 33.3767 39.8722C34.149 40.4048 34.1153 40.5035 34.4563 41.2662C34.702 41.8144 34.3225 42.0409 33.8936 41.7602C33.696 41.6313 33.1044 40.7975 33.0647 40.5855C33.0081 40.2782 33.2767 40.1144 33.3767 39.8722C32.7261 39.4228 31.9791 39.0855 31.3093 38.6638L31.3972 38.077C31.2912 37.8204 30.8574 37.7349 30.6671 37.5662C28.3888 40.159 26.2249 43.3072 23.9731 46.0626C18.2887 53.0156 12.4971 60.1747 5.63928 65.9326C5.44531 66.0964 5.3441 66.4036 5.14049 66.5639C4.80434 66.8253 3.82 67.5024 3.42361 67.3036C3.30915 67.5289 2.23325 69.5253 1.37782 71.9133C1.34409 72.0061 0.426013 74.8711 0.383844 75.029C0.286254 75.4049 -0.27158 76.9663 0.164566 77.8989C0.280229 78.1446 0.835652 78.3085 1.11999 78.3639C2.03807 78.5495 4.22964 77.0796 5.00675 76.5037C7.09832 74.9495 14.1008 67.9205 15.3996 66.4916C16.0345 65.794 24.9406 55.2711 25.0008 55.1964C25.7827 54.2193 29.7237 49.147 30.6731 47.8602C33.2382 44.3867 35.6346 40.7795 38.2527 37.3746C38.4273 37.1469 40.7237 33.6794 41.3563 32.6939C43.225 29.7818 45.1117 27.1011 46.6708 23.3987C46.99 22.6408 46.89 21.8312 46.831 21.6601C45.872 18.8637 44.596 17.9938 44.2936 17.9384L44.2985 17.93L44.3009 17.9348Z" fill="var(--fill-0, #EE4425)"/>
<path id="Vector_2" d="M22.5586 31.1782C20.7767 34.1782 19.0176 37.1999 17.2309 40.1939C16.973 40.6264 10.7561 51.6783 8.23685 56.5651C8.19107 56.6566 5.01275 63.1542 3.42358 67.2964C3.82359 67.494 4.80431 66.8181 5.14046 66.5567C5.34648 66.3976 5.44528 66.088 5.63925 65.9253C12.4971 60.1675 18.2863 53.0072 23.9731 46.0554C26.2273 43.2987 28.3911 40.1505 30.6671 37.559C29.8851 36.8626 29.1514 35.7469 28.3176 34.9891C26.9188 33.7168 25.6827 33.0963 24.1212 32.1108C23.5984 31.7818 23.2899 31.2746 22.5586 31.1782Z" fill="var(--fill-0, #F16023)"/>
<path id="Vector_3" d="M54.0371 6.05647C53.995 6.04322 51.7311 5.99382 49.5347 7.83359C49.4516 7.90347 49.3431 7.92636 49.26 7.99262L46.5781 10.1228C45.8046 10.7372 44.7178 10.0975 44.8829 9.12154L45.0263 8.26371C45.0371 8.19865 45.0431 8.13238 45.0407 8.06732C45.0359 7.56973 45.0311 7.15166 45.1913 6.72154C45.2805 6.48419 45.2961 6.22274 45.207 5.99021C44.9769 5.38298 45.1925 3.99261 45.172 3.65165C45.1431 3.15285 45.2323 0.41308 44.1359 0.0154883C43.5058 -0.244754 42.0034 2.85646 41.66 3.71912C41.2431 4.7649 40.0407 9.85649 39.8648 10.4758C39.8491 10.5252 39.8407 10.5722 39.8323 10.6228L39.4287 13.4276C39.366 13.8613 39.5648 14.283 39.9311 14.4999L41.3769 15.3457L43.5552 16.6095C43.6407 16.6601 43.5937 16.9951 44.0287 17.2433C44.1106 17.236 44.3937 17.4975 44.5311 17.5408C44.5672 17.5071 44.5733 17.4384 44.6094 17.4107C45.2431 16.8951 46.1841 16.4312 46.8528 15.9143C49.5058 13.8601 53.9335 10.0938 54.8516 7.52154L54.8564 7.5131C55.101 6.94563 54.7841 6.29985 54.2142 6.1143C54.142 6.09141 54.0805 6.06973 54.0359 6.05527L54.0371 6.05647Z" fill="var(--fill-0, #3CB14C)"/>
<path id="Vector_4" d="M16.8539 65.5374L16.6033 65.388Z" fill="var(--fill-0, #F5E1C7)"/>
<path id="Vector_5" d="M28.0516 23.3179C27.9913 23.3071 27.5166 23.5842 27.2684 23.2071C27.113 23.4685 26.9588 23.73 26.8058 23.9902C26.7022 24.1637 26.5986 24.3372 26.4961 24.5131C25.3648 26.4276 24.2359 28.3505 23.0973 30.2637C25.013 30.9372 26.4492 32.142 27.9467 33.4517C28.7383 34.1457 29.5106 34.8914 30.2648 35.6481C30.6106 35.9951 30.9829 36.3396 31.4118 36.5866C33.5407 33.0613 36.701 30.1999 38.295 26.3746C35.0745 24.9998 31.4733 23.9384 28.0504 23.3179H28.0516Z" fill="var(--fill-0, #F16023)"/>
<path id="Vector_6" d="M30.9359 17.7999C29.8889 19.0336 28.8889 20.6975 28.0889 22.1059C28.1395 22.3324 28.3154 22.4589 28.5142 22.5336C28.713 22.6083 29.0973 22.5107 29.3347 22.5722C32.9551 23.5372 35.2214 24.1662 38.6817 25.7192C39.7696 25.1565 40.307 23.8818 41.0371 22.8794C40.8214 22.7457 40.8034 22.436 40.6154 22.2878C38.0503 20.2372 35.2503 19.0035 32.378 17.524C32.1286 17.3951 31.8612 16.8782 31.5226 17.1963C31.3262 17.3806 31.2419 17.7228 31.0491 17.9348C31.0491 17.9348 30.9539 17.7758 30.9322 17.8011H30.9359V17.7999Z" fill="var(--fill-0, #F16023)"/>
<path id="Vector_7" d="M34.5949 13.4866C34.2455 13.5938 33.6226 13.7806 33.2539 14.2276C32.7322 14.8601 32.4274 15.742 31.9418 16.4492C32.0551 16.8239 32.2647 16.7252 32.5021 16.789C35.9792 17.73 38.784 19.7746 41.5792 21.9685C42.5575 20.7794 43.4431 19.2661 44.031 17.8505C44.0925 17.748 44.2828 17.9071 44.3021 17.9348C44.9069 18.8408 44.4431 17.6239 44.5359 17.5432C44.3985 17.4999 44.1142 17.2396 44.0334 17.2456C43.9865 17.2505 43.5599 16.6119 43.5599 16.6119C42.3587 15.8251 41.0226 15.2131 39.8274 14.4203C39.6033 14.2721 39.5286 14.0625 39.4864 14.0288C39.2178 13.83 37.2117 12.6854 34.5985 13.4878H34.5949V13.4866Z" fill="var(--fill-0, #F16023)"/>
<path id="Vector_8" d="M23.0984 30.265C22.9164 30.5686 22.7393 30.8758 22.5586 31.1794C23.2899 31.2758 23.6008 31.7818 24.1213 32.112C25.6827 33.0963 26.9189 33.718 28.3177 34.9903C29.1538 35.7493 29.8876 36.865 30.6671 37.5602C30.8719 37.3289 30.937 36.8192 31.3815 36.924L31.4104 36.5879C30.9827 36.3409 30.608 35.9987 30.2635 35.6493C29.5092 34.8927 28.7382 34.1445 27.9454 33.4529C26.4478 32.1445 25.0116 30.9385 23.096 30.265H23.0984Z" fill="var(--fill-0, #DD4F26)"/>
<path id="Vector_9" d="M31.9406 16.4493C31.6092 16.93 31.0442 17.4324 30.8104 18.0734C30.8309 18.0493 30.9635 18.03 31.049 17.9336C31.2394 17.7203 31.3249 17.3794 31.5225 17.195C31.8623 16.8758 32.1309 17.395 32.3779 17.5228C35.2514 19.0023 38.049 20.2384 40.6153 22.2866C40.8045 22.4384 40.8225 22.7457 41.037 22.8782C41.0418 22.8698 41.1755 22.9143 41.2394 22.8216C41.3816 22.6155 41.4876 22.3782 41.6274 22.1673L41.5792 21.9613C38.784 19.7673 35.9791 17.7228 32.502 16.7818C32.2623 16.7155 32.0538 16.8191 31.9418 16.442V16.4468L31.9406 16.4493Z" fill="var(--fill-0, #DD4F26)"/>
<path id="Vector_10" d="M38.6829 25.7216C35.2238 24.1661 32.9575 23.5384 29.3358 22.5746C29.0973 22.5095 28.7178 22.6095 28.5154 22.536C28.2069 22.6866 28.0358 22.9746 28.0527 23.3191C31.4744 23.9396 35.0756 25.0023 38.2973 26.3758C38.319 26.3854 38.4829 26.3288 38.6262 26.3951L38.9383 25.8734C38.8491 25.8336 38.772 25.7625 38.6853 25.7228H38.6829V25.7216Z" fill="var(--fill-0, #DD4F26)"/>
<path id="Vector_11" d="M38.9346 25.871L38.6226 26.3927C39.8611 26.9493 41.0431 27.8758 42.2021 28.5156C42.3756 28.6107 42.5828 28.6373 42.772 28.6867L43.3949 27.7999L39.5274 25.877C39.3756 25.765 39.0202 25.9059 38.9346 25.8686V25.871Z" fill="var(--fill-0, #DD3A26)"/>
<path id="Vector_12" d="M41.6274 22.1734C41.4876 22.383 41.3852 22.6204 41.2394 22.8276C41.6286 23.1902 41.931 23.6577 42.3503 23.9939C42.7695 24.33 43.6948 24.9951 44.1334 25.2565C44.3659 25.3951 44.6961 25.5975 44.8997 25.2517C45.1876 24.765 44.3286 24.5396 44.0671 24.2794C43.7129 23.9276 43.5707 23.4661 43.1466 23.1155C42.6864 22.7324 42.1274 22.4927 41.6262 22.1722H41.6286L41.6274 22.1734Z" fill="var(--fill-0, #DD3A26)"/>
<path id="Vector_13" d="M31.3827 36.924C30.937 36.818 30.8707 37.3265 30.6683 37.5602C30.8586 37.7289 31.2912 37.8132 31.3984 38.071L31.3104 38.6578C31.9815 39.0807 32.7273 39.418 33.3779 39.8662C33.2803 40.1096 33.0092 40.2747 33.0659 40.5795C33.1056 40.7915 33.6948 41.6241 33.8948 41.7542C34.3225 42.0337 34.7032 41.8084 34.4574 41.2602C34.1165 40.4975 34.1502 40.3987 33.3779 39.8662C33.4177 39.7674 33.4827 39.6819 33.4683 39.571C33.4213 39.0891 32.8984 38.9783 32.6635 38.6999C32.4803 38.4831 32.5647 38.171 32.4406 37.9975C32.2117 37.6758 31.7044 37.1879 31.3827 36.924Z" fill="var(--fill-0, #DD3A26)"/>
<path id="Vector_14" d="M7.88027 74.6917L7.95858 74.5615C7.83328 74.688 7.90557 74.6507 7.88027 74.6917Z" fill="var(--fill-0, #F8EEDB)"/>
<path id="Vector_15" d="M8.03335 74.4314L8.23576 74.3747C8.21046 74.3988 8.08034 74.3844 8.03335 74.4314Z" fill="var(--fill-0, #F8EEDB)"/>
<path id="Vector_16" d="M50.719 2.85282C50.1672 1.07451 47.9684 3.1974 47.3202 3.95524C46.7997 4.56247 45.4599 6.21428 45.431 6.25766C45.0117 6.89501 45.0394 7.44561 45.043 8.1673L44.425 11.8312L49.4033 7.94802C49.4081 7.61911 50.225 6.20946 50.5033 4.84801C50.5431 4.65042 50.8334 3.22753 50.7178 2.84801V2.85162L50.719 2.85282Z" fill="var(--fill-0, #2C8D45)"/>
<g id="Vector_17">
</g>
<path id="Vector_18" d="M45.1057 0.778139C45.0949 0.763681 45.0599 0.609463 45.0575 0.572114L45.1057 0.778139Z" fill="var(--fill-0, #F5E8D1)"/>
<path id="Vector_19" d="M27.5767 22.6866L27.6598 22.8252L27.4984 22.8179L27.2646 23.2095C27.5128 23.5866 27.9875 23.3095 28.0478 23.3204C28.0309 22.9734 28.2032 22.6854 28.5104 22.5372C28.3116 22.4625 28.1333 22.3348 28.0851 22.1095C28.0887 22.1095 27.7068 22.4697 27.5767 22.6878V22.6866Z" fill="var(--fill-0, #EE4425)"/>
</g>
</svg>
