<svg preserveAspectRatio="none" width="100%" height="100%" overflow="visible" style="display: block;" viewBox="0 0 47 38" fill="none" xmlns="http://www.w3.org/2000/svg">
<g id="Group">
<path id="Vector" d="M42 7H34.3483L33.0791 3.19238C32.4434 1.28288 30.6637 0 28.6517 0H18.015C16.0029 0 14.2233 1.28288 13.5898 3.1901L12.3184 7H4.66667C2.09408 7 0 9.09294 0 11.6667V35C0 36.2897 1.04362 37.3333 2.33333 37.3333H44.3333C45.623 37.3333 46.6667 36.2897 46.6667 35V11.6667C46.6667 9.09294 44.5726 7 42 7ZM9.33333 18.8035C8.04462 18.8035 7 17.7588 7 16.4702C7 15.1815 8.04462 14.1369 9.33333 14.1369C10.622 14.1369 11.6667 15.1815 11.6667 16.4702C11.6667 17.7588 10.622 18.8035 9.33333 18.8035ZM23.3333 30.3333C18.1859 30.3333 14 26.1475 14 21C14 15.8537 18.1859 11.6667 23.3333 11.6667C28.4808 11.6667 32.6667 15.8537 32.6667 21C32.6667 26.1475 28.4808 30.3333 23.3333 30.3333Z" fill="var(--fill-0, #BBF6E2)"/>
<path id="Vector_2" d="M23.3333 25.6667C25.9107 25.6667 28 23.5773 28 21C28 18.4227 25.9107 16.3333 23.3333 16.3333C20.756 16.3333 18.6667 18.4227 18.6667 21C18.6667 23.5773 20.756 25.6667 23.3333 25.6667Z" fill="var(--fill-0, #BBF6E2)"/>
</g>
</svg>
