<svg preserveAspectRatio="none" width="100%" height="100%" overflow="visible" style="display: block;" viewBox="0 0 32 37" fill="none" xmlns="http://www.w3.org/2000/svg">
<g id="Group">
<path id="Vector" d="M15.6489 18.4252C17.7006 18.4252 19.3639 16.7619 19.3639 14.7102C19.3639 12.6585 17.7006 10.9952 15.6489 10.9952C13.5972 10.9952 11.9339 12.6585 11.9339 14.7102C11.9339 16.7619 13.5972 18.4252 15.6489 18.4252Z" fill="var(--fill-0, #BBF6E2)"/>
<path id="Vector_2" d="M26.714 4.57387C20.6119 -1.52462 10.686 -1.52462 4.58385 4.57387C1.62893 7.52879 0 11.4596 0 15.639C0 19.8201 1.62893 23.7491 4.58385 26.704L14.3356 36.4558C14.6984 36.8186 15.1737 37 15.6489 37C16.1242 37 16.5994 36.8186 16.9622 36.4558L26.714 26.704C29.6689 23.7491 31.2979 19.8201 31.2979 15.639C31.2979 11.4596 29.6689 7.52879 26.714 4.57387ZM15.6489 22.1401C11.5512 22.1401 8.219 18.8079 8.219 14.7102C8.219 10.6125 11.5512 7.28028 15.6489 7.28028C19.7466 7.28028 23.0789 10.6125 23.0789 14.7102C23.0789 18.8079 19.7466 22.1401 15.6489 22.1401Z" fill="var(--fill-0, #BBF6E2)"/>
</g>
</svg>
