<svg preserveAspectRatio="none" width="100%" height="100%" overflow="visible" style="display: block;" viewBox="0 0 72 75" fill="none" xmlns="http://www.w3.org/2000/svg">
<g id="Group 1">
<rect id="Rectangle 13" width="72" height="75" rx="19" fill="var(--fill-0, #BBF6E2)"/>
<path id="Vector" d="M31.8001 44.05H39.1999V57H31.8001V44.05ZM53.0484 29.4831L36.3988 20.2331C35.8387 19.9223 35.1613 19.9223 34.6012 20.2331L17.9516 29.4831C17.0591 29.979 16.7366 31.1054 17.2334 31.9988C17.5695 32.6058 18.201 32.9212 18.8503 32.9224V55.15C18.8503 56.1717 19.6787 57 20.7003 57H28.1002V42.2C28.1002 41.1783 28.9285 40.35 29.9501 40.35H41.0499C42.0715 40.35 42.8998 41.1783 42.8998 42.2V57H50.2997C51.3213 57 52.1497 56.1717 52.1497 55.15V32.9498C52.7995 32.9491 53.4291 32.6062 53.7666 31.9988C54.2634 31.1054 53.9409 29.979 53.0484 29.4831Z" fill="var(--fill-0, #56B2E5)"/>
</g>
</svg>
