<svg preserveAspectRatio="none" width="100%" height="100%" overflow="visible" style="display: block;" viewBox="0 0 71 76" fill="none" xmlns="http://www.w3.org/2000/svg">
<g id="Group 10">
<path id="Vector" d="M66.7793 30.5211C67.6381 31.3685 68.4969 32.2158 69.3787 33.1244C69.4329 33.2131 69.4639 33.2405 69.495 33.2679C69.495 33.2679 69.4863 33.2661 69.4979 33.2886C69.5408 33.3311 69.5722 33.3512 69.6035 33.3712C69.6035 33.3712 69.5942 33.3725 69.6046 33.3945C69.6463 33.4366 69.6776 33.4567 69.7089 33.4767C69.7089 33.4767 69.7006 33.4803 69.7141 33.5037C69.7652 33.5445 69.8028 33.5619 69.8404 33.5792C69.8685 33.5792 69.8899 33.5912 69.9193 33.6664C69.9707 33.7423 70.0074 33.767 70.0441 33.7916C70.0766 33.7961 70.0997 33.8134 70.1199 33.9025C70.1749 34.0104 70.2232 34.0591 70.2715 34.1078C70.2932 34.1542 70.3149 34.2006 70.3335 34.3131C70.3702 34.4662 70.4101 34.5532 70.4499 34.6402C70.4499 34.6402 70.4379 34.6404 70.4456 34.6575C70.4673 34.7055 70.4899 34.7275 70.521 34.7409C70.4915 35.2769 70.462 35.813 70.3961 36.4078C70.2042 36.655 70.0625 36.8571 69.8912 37.0299C65.6495 41.309 61.4094 45.5898 57.1576 49.8588C55.857 51.1646 54.5153 52.4294 53.2055 53.7261C51.4698 55.4445 49.7474 57.1765 48.0171 58.9004C47.8689 59.048 47.704 59.1788 47.5456 59.2684C47.544 58.2895 47.548 57.3595 47.5422 56.4296C47.5349 55.2751 46.8268 54.5774 45.664 54.5522C45.656 54.5279 45.6422 54.4786 45.6717 54.4571C47.7214 53.3499 49.587 52.0464 51.2002 50.4114C55.0888 46.47 57.2905 41.7358 57.841 36.2081C57.9145 36.1407 57.9776 36.0847 57.9779 36.0282C57.9849 34.8809 57.9889 33.7335 57.9777 32.5863C57.9769 32.4988 57.8589 32.4123 57.7859 32.2807C57.5017 30.8104 57.3769 29.3355 56.9278 27.967C54.0941 19.3323 48.2281 14.0215 39.2989 12.0968C38.3699 11.923 37.4524 11.6814 36.5321 11.6703C35.0545 11.6526 33.5706 11.7394 32.0984 11.878C31.3534 11.9482 30.6283 12.2288 29.8861 12.4112C29.878 12.4082 29.8815 12.3912 29.8371 12.3901C29.6991 12.439 29.6055 12.4891 29.48 12.5592C29.3133 12.6184 29.1777 12.6544 29.0442 12.6969C21.365 15.1465 16.2702 20.2059 13.783 27.8683C13.429 28.9587 13.2364 30.1015 12.9397 31.254C12.9152 31.5588 12.9202 31.8296 12.9292 32.1311C12.9278 32.1816 12.9223 32.2014 12.879 32.2318C12.8378 32.5484 12.8345 32.8546 12.8374 33.201C12.8378 33.3224 12.8319 33.4035 12.7856 33.4945C12.6135 33.997 12.4532 34.4911 12.8338 34.9915C12.8374 35.0766 12.8337 35.1254 12.8 35.2056C12.8371 35.9326 12.9041 36.6283 13.0009 37.3485C13.1277 37.907 13.2077 38.4448 13.3245 38.9744C14.4141 43.9134 16.8664 48.0512 20.6755 51.3742C21.9718 52.5051 23.3513 53.5288 24.9378 54.3004C25.0383 54.4043 25.1174 54.4815 25.1487 54.5626C23.6965 54.6046 23.1754 55.1479 23.1747 56.5752C23.1744 57.067 23.1747 57.5588 23.1747 58.0506C23.1748 58.4259 23.1748 58.8011 23.1748 59.2745C22.9276 59.098 22.7889 58.9991 22.623 58.879C22.4451 58.6873 22.304 58.5072 22.1424 58.3478C19.9685 56.202 17.7791 54.0717 15.6181 51.9129C10.5728 46.8728 5.54124 41.8188 0.499548 36.7751C0.423747 36.6992 0.289126 36.6822 0.181956 36.6377C0.115739 36.2267 -0.0193432 35.812 0.00232768 35.4056C0.0248018 34.9843 0.199128 34.5711 0.365092 34.1229C0.446916 34.061 0.470691 34.0304 0.494464 33.9998C0.494464 33.9998 0.491383 34.0078 0.517836 33.9903C0.56296 33.9098 0.58163 33.8467 0.600301 33.7836C2.09372 32.2774 3.58471 30.7688 5.08117 29.2657C7.03673 27.3014 8.99662 25.3414 11.0146 23.3554C11.0997 23.3002 11.1247 23.2691 11.1498 23.238C11.1498 23.238 11.1505 23.2475 11.1731 23.2338C11.2143 23.1846 11.2329 23.1492 11.2515 23.1137C11.3304 23.0246 11.4092 22.9356 11.5468 22.8225C11.628 22.7613 11.6505 22.724 11.6729 22.6867C11.9215 22.4258 12.1701 22.1648 12.4832 21.8759C12.5726 21.8066 12.5975 21.7653 12.6225 21.724C12.6204 21.6986 12.6304 21.6795 12.7013 21.656C12.7794 21.6141 12.8086 21.5828 12.8377 21.5516C12.8377 21.5516 12.8357 21.5606 12.8579 21.5486C12.9003 21.5054 12.9206 21.4742 12.9409 21.443C12.9409 21.443 12.942 21.4525 12.9637 21.4418C13.0057 21.3999 13.026 21.3687 13.0462 21.3375C13.0462 21.3375 13.0474 21.347 13.0692 21.3363C13.1112 21.2944 13.1314 21.2632 13.1517 21.2321C13.1517 21.2321 13.1528 21.2414 13.1746 21.2308C13.2167 21.189 13.2369 21.1578 13.2571 21.1266C13.2571 21.1266 13.2582 21.1359 13.2801 21.1253C13.3222 21.0835 13.3423 21.0523 13.3624 21.0211C13.3624 21.0211 13.3637 21.0303 13.3856 21.0198C13.4277 20.978 13.4478 20.9468 13.4679 20.9155C13.4679 20.9155 13.4721 20.9235 13.4963 20.9085C13.5375 20.8535 13.5544 20.8135 13.5714 20.7734C15.3717 18.9473 17.164 17.1133 18.9738 15.2965C23.86 10.3914 28.7537 5.49366 33.7109 0.578994C33.8286 0.52642 33.8798 0.487831 33.931 0.449242C33.931 0.449242 33.9341 0.45815 33.9559 0.44848C33.9976 0.407407 34.0174 0.376003 34.0373 0.3446C34.0373 0.3446 34.0372 0.353478 34.0761 0.354781C34.5501 0.248135 34.9853 0.140182 35.4205 0.0322302C35.4659 0.0342181 35.5113 0.0362057 35.6164 0.0711313C35.807 0.117015 35.938 0.129963 36.0689 0.142912C36.0689 0.142912 36.1121 0.142021 36.14 0.165325C36.1961 0.180635 36.2241 0.172641 36.2522 0.164646C36.537 0.363035 36.8594 0.523792 37.1011 0.765282C44.2387 7.89505 51.3685 15.0326 58.4984 22.17C58.9578 22.6299 59.4083 23.0987 59.8854 23.6256C59.939 23.7168 59.9702 23.7457 60.0014 23.7746C60.0014 23.7746 59.9927 23.7727 60.0046 23.795C60.0477 23.8375 60.0789 23.8576 60.1101 23.8778C60.1101 23.8778 60.1007 23.879 60.1112 23.9009C60.153 23.9429 60.1843 23.9631 60.2156 23.9832C60.2156 23.9832 60.2061 23.9844 60.2167 24.0063C60.2585 24.0483 60.2898 24.0684 60.321 24.0886C60.321 24.0886 60.3118 24.0898 60.3223 24.1118C60.3641 24.1538 60.3954 24.1739 60.4266 24.194C60.4266 24.194 60.4174 24.1954 60.4278 24.2173C60.4696 24.2593 60.5008 24.2795 60.5321 24.2996C60.5321 24.2996 60.5227 24.3008 60.5333 24.3227C60.575 24.3648 60.6062 24.3849 60.6374 24.4051C60.6374 24.4051 60.6281 24.4061 60.6386 24.4281C60.6804 24.4702 60.7117 24.4903 60.743 24.5104C60.743 24.5104 60.7338 24.5116 60.7442 24.5336C60.7859 24.5757 60.8172 24.5958 60.8485 24.6158C60.8485 24.6158 60.8393 24.617 60.8497 24.6391C60.8914 24.6812 60.9227 24.7012 60.954 24.7212C60.954 24.7212 60.9449 24.7226 60.9553 24.7447C60.997 24.7868 61.0283 24.8068 61.0597 24.8268C61.0597 24.8268 61.0505 24.8284 61.0608 24.8503C61.1024 24.8923 61.1337 24.9123 61.1649 24.9324C61.1649 24.9324 61.1558 24.9337 61.1662 24.9557C61.2078 24.9978 61.2391 25.0178 61.2704 25.0379C61.2704 25.0379 61.2612 25.0392 61.2716 25.0612C61.3133 25.1033 61.3447 25.1234 61.376 25.1434C61.376 25.1434 61.3667 25.1448 61.3771 25.1667C61.4189 25.2088 61.4502 25.2289 61.4815 25.249C61.4815 25.249 61.4721 25.2503 61.4826 25.2722C61.5244 25.3143 61.5557 25.3344 61.587 25.3546C61.587 25.3546 61.5776 25.356 61.5881 25.3778C61.6299 25.4198 61.6611 25.44 61.6923 25.4602C61.6923 25.4602 61.6828 25.4614 61.6934 25.4832C61.7353 25.5252 61.7665 25.5454 61.7978 25.5657C61.7978 25.5657 61.7882 25.5668 61.7989 25.5886C61.8408 25.6307 61.872 25.6509 61.9033 25.6711C61.9033 25.6711 61.8938 25.6723 61.9044 25.6941C61.9463 25.7362 61.9776 25.7564 62.0089 25.7766C62.0089 25.7766 61.9994 25.778 62.01 25.7997C62.0518 25.8417 62.083 25.8619 62.1142 25.8822C62.1142 25.8822 62.1055 25.8856 62.1196 25.9089C62.1716 25.9497 62.2095 25.9671 62.2475 25.9846C62.3678 26.0961 62.488 26.2077 62.6327 26.38C62.6949 26.4647 62.7327 26.4888 62.7706 26.5128C62.8579 26.5903 62.9453 26.6679 63.0563 26.8051C63.1187 26.888 63.1574 26.9112 63.1961 26.9344C63.2239 26.9338 63.245 26.9454 63.2751 27.021C63.33 27.0972 63.3693 27.1213 63.4085 27.1455C63.5979 27.3261 63.7873 27.5067 64.0025 27.7496C64.0662 27.8359 64.104 27.86 64.1419 27.8841C64.4377 28.1689 64.7335 28.4538 65.0566 28.802C65.1233 28.8899 65.1627 28.9144 65.202 28.9388C65.2297 28.9382 65.2506 28.9499 65.2764 29.0231C65.3194 29.0997 65.3505 29.1269 65.3817 29.1541C65.3817 29.1541 65.3725 29.1526 65.3842 29.1748C65.4271 29.2172 65.4584 29.2374 65.4896 29.2576C65.4896 29.2576 65.4801 29.2587 65.4907 29.2806C65.5326 29.3226 65.5638 29.3428 65.5951 29.3631C65.5951 29.3631 65.5856 29.3641 65.5962 29.386C65.6381 29.4281 65.6693 29.4482 65.7006 29.4684C65.7006 29.4684 65.6922 29.4719 65.706 29.4954C65.7578 29.5363 65.7958 29.5536 65.8337 29.5709C66.0934 29.8221 66.3531 30.0734 66.6392 30.3872C66.7035 30.4736 66.7414 30.4973 66.7793 30.5211Z" fill="var(--fill-0, #A7CD59)"/>
<path id="Vector_2" d="M22.6502 58.9001C22.7888 58.9991 22.9275 59.098 23.1747 59.2745C23.1747 58.8011 23.1747 58.4259 23.1747 58.0506C23.1746 57.5588 23.1743 57.067 23.1746 56.5752C23.1753 55.1479 23.6964 54.6046 25.147 54.5687C25.1931 54.5708 25.1807 54.5684 25.2101 54.602C25.3418 54.6515 25.4441 54.6814 25.5464 54.6815C28.1052 54.6843 30.664 54.6855 33.2227 54.6803C33.3534 54.68 33.4839 54.6211 33.6637 54.5811C34.3872 54.5786 35.0616 54.5845 35.7678 54.62C35.8857 54.661 35.9718 54.6825 36.0579 54.6826C39.0743 54.6844 42.0907 54.6858 45.1071 54.6793C45.2518 54.679 45.3963 54.607 45.5353 54.5731C45.5298 54.5779 45.5202 54.5669 45.558 54.5711C45.6212 54.5758 45.6466 54.5762 45.6719 54.5766C46.8267 54.5773 47.5348 55.2751 47.5421 56.4296C47.5479 57.3595 47.5439 58.2895 47.5445 59.315C47.5455 60.0873 47.5462 60.7641 47.5475 61.4897C47.5537 62.2511 47.5594 62.9637 47.565 63.6763C47.565 63.6763 47.5676 63.6647 47.5498 63.6679C47.52 63.6786 47.5081 63.6863 47.4961 63.694C47.5128 63.7146 47.5295 63.7352 47.5462 63.7559C47.5472 63.8033 47.5482 63.8507 47.5007 63.9428C47.4127 64.1293 47.3395 64.271 47.3389 64.413C47.3313 66.3689 47.3314 68.3248 47.3383 70.2807C47.3388 70.4265 47.406 70.5722 47.4412 70.7619C47.4015 71.1248 47.3627 71.4438 47.2855 71.764C47.1021 71.8535 46.9657 71.9631 46.8103 72.0259C46.3845 72.1981 45.9514 72.4884 45.5201 72.4902C38.7379 72.5196 31.9556 72.5171 25.1734 72.4949C24.7807 72.4936 24.3557 72.3198 24.0063 72.1203C23.6911 71.9404 23.4591 71.6151 23.1904 71.3539C23.2115 71.3047 23.2327 71.2554 23.268 71.1299C23.2831 68.857 23.2862 66.6603 23.2806 64.4637C23.2801 64.2989 23.2173 64.1342 23.1835 63.9694C23.1782 63.9269 23.1729 63.8844 23.1728 63.771C23.1778 63.6485 23.1777 63.5969 23.1771 63.4959C23.1766 63.3597 23.1696 63.2723 23.1777 63.1863C23.256 62.3518 23.2064 61.5619 22.4551 60.9764C22.5317 60.2575 22.5909 59.5788 22.6502 58.9001ZM41.591 57.7145C38.9787 57.0947 36.8314 58.3715 36.1661 60.9678C35.6997 62.788 35.7128 64.6084 36.2382 66.423C36.7985 68.3585 38.3068 69.6059 40.1804 69.655C42.2067 69.708 43.8009 68.5964 44.4502 66.636C45.0503 64.8241 45.079 62.9734 44.6298 61.1331C44.2346 59.5145 43.3951 58.2278 41.591 57.7145ZM31.9538 57.7484C31.1027 57.7138 30.2316 57.5474 29.405 57.6735C27.9235 57.8995 26.8849 58.7755 26.4544 60.2629C26.2515 60.9637 26.2864 60.995 27.032 60.9958C27.2078 60.996 27.3854 60.9794 27.5589 60.9991C27.9494 61.0433 28.1465 60.8878 28.2998 60.5113C28.6398 59.6759 29.3119 59.1933 30.2056 59.1463C31.1787 59.0951 32.0223 59.3859 32.3012 60.3486C32.6817 61.662 31.7833 62.7627 30.2805 62.8118C29.0796 62.8511 29.0604 62.8749 29.2686 64.0835C29.283 64.1675 29.3028 64.2505 29.3315 64.3889C29.5457 64.3889 29.7551 64.3688 29.9594 64.3928C30.4788 64.4539 31.0153 64.4711 31.5094 64.6222C32.2985 64.8636 32.702 65.5192 32.6956 66.3581C32.6897 67.1258 32.3125 67.6242 31.5154 67.9177C30.2151 68.3964 28.8074 67.8606 28.1365 66.6447C28.0605 66.507 27.9195 66.3162 27.7978 66.3078C27.2605 66.271 26.7193 66.2919 26.1385 66.2919C26.1631 67.0593 26.4504 67.6478 26.8947 68.1573C28.3787 69.8588 31.5769 70.1893 33.4116 68.8362C34.3878 68.1162 34.8082 67.1383 34.6575 65.9393C34.5165 64.8187 33.9135 64.029 32.8561 63.6028C32.7352 63.5541 32.6112 63.5131 32.4109 63.4401C33.6548 62.9104 34.3713 62.0749 34.3498 60.7617C34.3242 59.2027 33.4178 58.2937 31.9538 57.7484Z" fill="var(--fill-0, #83B45E)"/>
<path id="Vector_3" d="M47.5468 61.4409C47.5461 60.7641 47.5455 60.0873 47.5458 59.3639C47.7039 59.1788 47.8688 59.048 48.0169 58.9004C49.7473 57.1765 51.4696 55.4445 53.2054 53.7261C54.5152 52.4294 55.8569 51.1646 57.1574 49.8588C61.4093 45.5898 65.6494 41.309 69.8911 37.0299C70.0624 36.8571 70.2041 36.655 70.3905 36.4503C70.4564 36.5536 70.4914 36.6731 70.4954 36.8616C70.4536 37.2278 70.4556 37.5262 70.4293 37.8221C70.3778 38.4 70.2937 38.9564 69.8472 39.4062C67.9795 41.288 66.1308 43.1886 64.2668 45.0741C62.9727 46.3832 61.6651 47.6789 60.3635 48.9806C59.9937 49.3503 59.6237 49.7199 59.2539 50.0896C55.5269 53.8153 51.8016 57.5427 48.0656 61.2595C47.9485 61.376 47.7222 61.3829 47.5468 61.4409Z" fill="var(--fill-0, #81B65E)"/>
<path id="Vector_4" d="M22.623 58.879C22.591 59.5788 22.5318 60.2575 22.4239 60.9603C22.3353 60.9501 22.2926 60.9186 22.2555 60.8815C15.1339 53.7607 8.01237 46.6399 0.894297 39.5156C0.748036 39.3692 0.622619 39.1932 0.52223 39.0118C0.364071 38.726 0.23546 38.4238 0.0943435 38.1286C0.118529 37.6619 0.142714 37.1953 0.174435 36.6832C0.28914 36.6822 0.423761 36.6993 0.499563 36.7751C5.54126 41.8189 10.5728 46.8728 15.6181 51.913C17.7791 54.0717 19.9685 56.202 22.1425 58.3478C22.304 58.5072 22.4451 58.6874 22.623 58.879Z" fill="var(--fill-0, #81B65E)"/>
<path id="Vector_5" d="M47.5475 61.4897C47.7223 61.3829 47.9486 61.376 48.0658 61.2595C51.8017 57.5427 55.527 53.8154 59.254 50.0896C59.6238 49.7199 59.9938 49.3504 60.3636 48.9806C61.6652 47.679 62.9728 46.3832 64.267 45.0741C66.1309 43.1886 67.9797 41.288 69.8473 39.4062C70.2938 38.9564 70.3779 38.4001 70.4294 37.8221C70.4557 37.5262 70.4538 37.2278 70.493 36.8988C70.495 38.0433 70.5268 39.2254 70.4108 40.3927C70.3693 40.8102 70.0406 41.262 69.7243 41.5799C63.9777 47.3539 58.2141 53.1109 52.4515 58.869C50.8496 60.4697 49.2396 62.0624 47.5992 63.6675C47.5595 62.9637 47.5538 62.2511 47.5475 61.4897Z" fill="var(--fill-0, #66984A)"/>
<path id="Vector_6" d="M0.0883109 38.1693C0.235336 38.4238 0.363947 38.726 0.522106 39.0118C0.622495 39.1932 0.747912 39.3692 0.894173 39.5156C8.01225 46.6398 15.1338 53.7607 22.2554 60.8815C22.2925 60.9186 22.3352 60.9501 22.4065 61.0004C23.2063 61.562 23.256 62.3518 23.1777 63.1863C23.1696 63.2723 23.1766 63.3598 23.1524 63.5089C23.1078 63.6018 23.0874 63.6323 23.067 63.6629C21.2487 61.8565 19.4303 60.0501 17.586 58.1855C17.5285 58.1059 17.4971 58.0844 17.4656 58.0629C16.6702 57.2803 15.8747 56.4977 15.0539 55.656C14.9962 55.5752 14.9639 55.5537 14.9316 55.5321C13.8552 54.4682 12.7789 53.4043 11.6772 52.2813C11.6197 52.2003 11.5876 52.1785 11.5554 52.1566C9.6358 50.2482 7.71618 48.3397 5.77114 46.3727C5.71449 46.2923 5.68326 46.2705 5.65203 46.2486C4.01179 44.6233 2.37155 42.998 0.707651 41.3134C0.653749 41.2309 0.623501 41.2078 0.593254 41.1846C0.593254 41.1846 0.601331 41.1847 0.601437 41.1484C0.523534 41.0273 0.445525 40.9426 0.367519 40.8579C-0.0940056 40.2022 0.0926051 39.4678 0.10873 38.7532C0.112807 38.5724 0.0918551 38.3911 0.0883109 38.1693Z" fill="var(--fill-0, #65984A)"/>
<path id="Vector_7" d="M23.1815 71.4018C23.459 71.6151 23.6911 71.9404 24.0062 72.1203C24.3557 72.3198 24.7806 72.4936 25.1733 72.4949C31.9555 72.5171 38.7378 72.5196 45.52 72.4902C45.9513 72.4884 46.3844 72.1981 46.8103 72.0259C46.9656 71.9631 47.1021 71.8535 47.289 71.8124C47.2986 72.2913 47.2664 72.7231 47.2341 73.1548C47.2341 73.1548 47.2302 73.1465 47.1968 73.1498C47.1274 73.2327 47.0915 73.3122 47.0556 73.3917C47.0556 73.3917 47.0436 73.3877 47.0156 73.3864C46.9715 73.4221 46.9555 73.459 46.9395 73.496C46.9395 73.496 46.9319 73.4844 46.9066 73.4878C46.8639 73.5276 46.8464 73.5641 46.8289 73.6005C46.8289 73.6005 46.8341 73.5888 46.7999 73.5858C46.7103 73.6505 46.6549 73.7182 46.5995 73.786C46.5995 73.786 46.5973 73.7777 46.5688 73.7803C46.4885 73.8142 46.4367 73.8455 46.385 73.8768C46.385 73.8768 46.3431 73.8885 46.2705 73.8853C43.5996 73.8821 41.0012 73.8777 38.403 73.8914C38.2146 73.8923 38.0269 74.0244 37.8389 74.0955C37.5568 74.3825 37.2894 74.6859 36.9898 74.9532C36.1978 75.6602 35.2954 75.7142 34.2796 75.3297C34.1911 75.2888 34.1587 75.2766 34.1263 75.2643C34.1263 75.2643 34.1375 75.2639 34.1367 75.2298C34.0305 75.1456 33.9251 75.0954 33.8197 75.0453C33.5493 74.796 33.279 74.5468 32.9827 74.2352C32.9199 74.1491 32.8831 74.1253 32.8464 74.1014C32.8464 74.1014 32.8073 74.1031 32.7808 74.0514C32.6467 73.9606 32.5392 73.8874 32.4316 73.8873C29.7277 73.8856 27.0237 73.8915 24.3198 73.8961C24.3198 73.8961 24.3328 73.8961 24.3187 73.8691C24.2393 73.8241 24.1741 73.8061 24.1088 73.7881C24.1088 73.7881 24.1198 73.7851 24.1095 73.7618C24.0626 73.7244 24.0261 73.7104 23.9895 73.6963C23.9895 73.6963 24.0055 73.6964 23.9951 73.668C23.921 73.6164 23.8574 73.5932 23.7938 73.5701C23.0537 73.0194 23.1669 72.2188 23.1815 71.4018Z" fill="var(--fill-0, #66984A)"/>
<path id="Vector_8" d="M37.8886 74.0935C38.0271 74.0244 38.2148 73.8923 38.4032 73.8913C41.0015 73.8777 43.5998 73.8821 46.249 73.885C46.0221 73.956 45.7447 74.0812 45.4665 74.0829C42.9571 74.0981 40.4475 74.0917 37.8886 74.0935Z" fill="var(--fill-0, #558C35)"/>
<path id="Vector_9" d="M24.3466 73.928C27.024 73.8915 29.7279 73.8856 32.4319 73.8873C32.5395 73.8874 32.647 73.9606 32.7647 74.0407C30.1961 74.0856 27.6173 74.0928 25.0385 74.0875C24.8166 74.0871 24.5949 74.0044 24.3466 73.928Z" fill="var(--fill-0, #558C35)"/>
<path id="Vector_10" d="M47.4422 70.718C47.406 70.5722 47.3389 70.4265 47.3383 70.2807C47.3314 68.3248 47.3314 66.3689 47.339 64.413C47.3395 64.271 47.4127 64.1293 47.4932 63.9776C47.537 66.1864 47.5397 68.405 47.5131 70.6717C47.4837 70.7199 47.4422 70.718 47.4422 70.718Z" fill="var(--fill-0, #74AB4C)"/>
<path id="Vector_11" d="M23.1775 64.0183C23.2174 64.1342 23.2802 64.2989 23.2807 64.4637C23.2863 66.6604 23.2832 68.857 23.2809 71.1042C23.243 70.9969 23.1751 70.8391 23.1746 70.6811C23.1682 68.4765 23.1709 66.2719 23.1775 64.0183Z" fill="var(--fill-0, #63A437)"/>
<path id="Vector_12" d="M47.4413 70.7619C47.4422 70.718 47.4838 70.7199 47.5045 70.7208C47.5116 71.5222 47.6995 72.3423 47.2638 73.1297C47.2665 72.7231 47.2988 72.2914 47.3275 71.8112C47.3628 71.4438 47.4016 71.1248 47.4413 70.7619Z" fill="var(--fill-0, #558C35)"/>
<path id="Vector_13" d="M35.3955 0C34.9851 0.140193 34.55 0.248145 34.0718 0.353173C34.4761 0.222751 34.9234 0.0952561 35.3955 0Z" fill="var(--fill-0, #99C63F)"/>
<path id="Vector_14" d="M36.0506 0.11617C35.938 0.129964 35.807 0.117015 35.6504 0.0740013C35.7606 0.0591002 35.8964 0.0742637 36.0506 0.11617Z" fill="var(--fill-0, #99C63F)"/>
<path id="Vector_15" d="M0.377603 40.8912C0.445672 40.9425 0.523681 41.0272 0.600081 41.1521C0.528162 41.103 0.457852 41.0138 0.377603 40.8912Z" fill="var(--fill-0, #528930)"/>
<path id="Vector_16" d="M47.0841 73.3776C47.0918 73.3122 47.1277 73.2327 47.2014 73.1512C47.1969 73.2206 47.1546 73.2921 47.0841 73.3776Z" fill="var(--fill-0, #558C35)"/>
<path id="Vector_17" d="M46.6304 73.7782C46.6551 73.7183 46.7105 73.6505 46.8034 73.5912C46.781 73.6565 46.7211 73.7134 46.6304 73.7782Z" fill="var(--fill-0, #558C35)"/>
<path id="Vector_18" d="M70.4509 34.602C70.4101 34.5532 70.3702 34.4662 70.3327 34.3402C70.3739 34.3887 70.4129 34.4762 70.4509 34.602Z" fill="var(--fill-0, #99C63F)"/>
<path id="Vector_19" d="M70.2575 34.0767C70.2231 34.0591 70.1748 34.0104 70.1241 33.9245C70.1622 33.9401 70.2029 33.9928 70.2575 34.0767Z" fill="var(--fill-0, #99C63F)"/>
<path id="Vector_20" d="M0.572332 33.8025C0.581615 33.8467 0.562944 33.9098 0.514072 33.9883C0.504039 33.943 0.524209 33.8822 0.572332 33.8025Z" fill="var(--fill-0, #99C63F)"/>
<path id="Vector_21" d="M23.8108 73.5981C23.8576 73.5932 23.9212 73.6164 23.9914 73.6749C23.9412 73.6822 23.8844 73.6541 23.8108 73.5981Z" fill="var(--fill-0, #558C35)"/>
<path id="Vector_22" d="M24.1272 73.8156C24.1742 73.8061 24.2395 73.8241 24.3171 73.8754C24.2681 73.8868 24.2068 73.8649 24.1272 73.8156Z" fill="var(--fill-0, #558C35)"/>
<path id="Vector_23" d="M46.417 73.8814C46.4368 73.8455 46.4885 73.8142 46.5726 73.7823C46.553 73.8165 46.501 73.8512 46.417 73.8814Z" fill="var(--fill-0, #558C35)"/>
<path id="Vector_24" d="M33.897 0.444797C33.8798 0.487835 33.8286 0.526424 33.7429 0.565642C33.76 0.524296 33.8115 0.482321 33.897 0.444797Z" fill="var(--fill-0, #99C63F)"/>
<path id="Vector_25" d="M23.0771 63.688C23.0876 63.6323 23.108 63.6018 23.1531 63.5583C23.1778 63.5969 23.1779 63.6486 23.1752 63.7388C23.1439 63.756 23.1155 63.7345 23.0771 63.688Z" fill="var(--fill-0, #63A437)"/>
<path id="Vector_26" d="M32.8618 74.1299C32.8832 74.1253 32.92 74.1491 32.9677 74.205C32.9447 74.2107 32.9109 74.1846 32.8618 74.1299Z" fill="var(--fill-0, #558C35)"/>
<path id="Vector_27" d="M46.9692 73.4892C46.9556 73.4591 46.9716 73.4221 47.02 73.3818C47.0345 73.4131 47.0166 73.4477 46.9692 73.4892Z" fill="var(--fill-0, #558C35)"/>
<path id="Vector_28" d="M36.2291 0.156003C36.2249 0.172903 36.1965 0.180997 36.1608 0.171479C36.1536 0.153869 36.2048 0.147199 36.2291 0.156003Z" fill="var(--fill-0, #99C63F)"/>
<path id="Vector_29" d="M34.0062 0.351126C34.0173 0.376015 33.9975 0.407419 33.9512 0.449186C33.9415 0.425579 33.9584 0.391611 34.0062 0.351126Z" fill="var(--fill-0, #99C63F)"/>
<path id="Vector_30" d="M5.66428 46.2748C5.68331 46.2704 5.71454 46.2923 5.75736 46.3408C5.73812 46.3453 5.70729 46.3232 5.66428 46.2748Z" fill="var(--fill-0, #528930)"/>
<path id="Vector_31" d="M23.9983 73.7253C24.0261 73.7104 24.0626 73.7244 24.1093 73.7675C24.082 73.7825 24.0445 73.7684 23.9983 73.7253Z" fill="var(--fill-0, #558C35)"/>
<path id="Vector_32" d="M46.8585 73.593C46.8465 73.5641 46.8639 73.5276 46.9136 73.4884C46.9265 73.5188 46.9073 73.5521 46.8585 73.593Z" fill="var(--fill-0, #558C35)"/>
<path id="Vector_33" d="M13.2276 21.1328C13.2369 21.1578 13.2167 21.189 13.17 21.2306C13.1616 21.207 13.1799 21.173 13.2276 21.1328Z" fill="var(--fill-0, #99C63F)"/>
<path id="Vector_34" d="M47.5588 63.7375C47.53 63.736 47.5131 63.7151 47.4963 63.6942C47.5083 63.6865 47.5204 63.6787 47.5549 63.6719C47.5774 63.6729 47.5707 63.718 47.5588 63.7375Z" fill="var(--fill-0, #74AB4C)"/>
<path id="Vector_35" d="M11.569 52.1826C11.5878 52.1785 11.6199 52.2003 11.6639 52.2494C11.6446 52.254 11.6135 52.2313 11.569 52.1826Z" fill="var(--fill-0, #528930)"/>
<path id="Vector_36" d="M17.4781 58.089C17.4972 58.0844 17.5287 58.1059 17.5717 58.154C17.5523 58.1588 17.5213 58.137 17.4781 58.089Z" fill="var(--fill-0, #528930)"/>
<path id="Vector_37" d="M13.0169 21.344C13.026 21.3687 13.0058 21.3999 12.959 21.4416C12.9508 21.4182 12.9692 21.3843 13.0169 21.344Z" fill="var(--fill-0, #99C63F)"/>
<path id="Vector_38" d="M14.9441 55.5587C14.964 55.5537 14.9963 55.5752 15.0398 55.6244C15.0194 55.6297 14.988 55.6075 14.9441 55.5587Z" fill="var(--fill-0, #528930)"/>
<path id="Vector_39" d="M13.5442 20.7926C13.5543 20.8135 13.5374 20.8535 13.492 20.9103C13.4815 20.8885 13.4993 20.8501 13.5442 20.7926Z" fill="var(--fill-0, #99C63F)"/>
<path id="Vector_40" d="M13.4382 20.9216C13.4478 20.9468 13.4277 20.978 13.381 21.0195C13.3724 20.9957 13.3905 20.9617 13.4382 20.9216Z" fill="var(--fill-0, #99C63F)"/>
<path id="Vector_41" d="M13.1221 21.2384C13.1314 21.2632 13.1111 21.2944 13.0644 21.336C13.0561 21.3126 13.0744 21.2787 13.1221 21.2384Z" fill="var(--fill-0, #99C63F)"/>
<path id="Vector_42" d="M13.3328 21.0272C13.3422 21.0523 13.3221 21.0835 13.2754 21.125C13.2669 21.1013 13.2851 21.0673 13.3328 21.0272Z" fill="var(--fill-0, #99C63F)"/>
<path id="Vector_43" d="M64.1246 27.8562C64.104 27.86 64.0661 27.8359 64.0171 27.7789C64.0398 27.7735 64.0736 27.8009 64.1246 27.8562Z" fill="var(--fill-0, #99C63F)"/>
<path id="Vector_44" d="M63.3898 27.1176C63.3691 27.1213 63.3299 27.0972 63.2791 27.0394C63.3021 27.0337 63.3367 27.0617 63.3898 27.1176Z" fill="var(--fill-0, #99C63F)"/>
<path id="Vector_45" d="M60.42 24.1647C60.3952 24.1739 60.364 24.1538 60.3224 24.1071C60.3459 24.0988 60.3798 24.117 60.42 24.1647Z" fill="var(--fill-0, #99C63F)"/>
<path id="Vector_46" d="M63.1779 26.907C63.1573 26.9112 63.1186 26.888 63.0682 26.832C63.0909 26.826 63.1253 26.8528 63.1779 26.907Z" fill="var(--fill-0, #99C63F)"/>
<path id="Vector_47" d="M62.7534 26.485C62.7328 26.4888 62.6949 26.4648 62.646 26.4079C62.6686 26.4025 62.7023 26.4298 62.7534 26.485Z" fill="var(--fill-0, #99C63F)"/>
<path id="Vector_48" d="M62.23 25.9582C62.2096 25.9671 62.1716 25.9497 62.1184 25.9044C62.1395 25.895 62.1759 25.9134 62.23 25.9582Z" fill="var(--fill-0, #99C63F)"/>
<path id="Vector_49" d="M62.107 25.8532C62.083 25.8619 62.0518 25.8417 62.01 25.7949C62.0329 25.787 62.0664 25.8056 62.107 25.8532Z" fill="var(--fill-0, #99C63F)"/>
<path id="Vector_50" d="M60.5256 24.2702C60.5008 24.2795 60.4696 24.2593 60.428 24.2126C60.4514 24.2043 60.4852 24.2226 60.5256 24.2702Z" fill="var(--fill-0, #99C63F)"/>
<path id="Vector_51" d="M65.1832 28.9108C65.1626 28.9144 65.1232 28.8899 65.0723 28.8317C65.0953 28.8261 65.13 28.8544 65.1832 28.9108Z" fill="var(--fill-0, #99C63F)"/>
<path id="Vector_52" d="M62.0018 25.7475C61.9775 25.7564 61.9462 25.7362 61.9045 25.6893C61.9276 25.6813 61.9612 25.6999 62.0018 25.7475Z" fill="var(--fill-0, #99C63F)"/>
<path id="Vector_53" d="M61.8964 25.6421C61.8721 25.6509 61.8408 25.6307 61.7991 25.5838C61.8223 25.5758 61.8558 25.5944 61.8964 25.6421Z" fill="var(--fill-0, #99C63F)"/>
<path id="Vector_54" d="M61.7907 25.5366C61.7665 25.5454 61.7353 25.5252 61.6936 25.4784C61.7167 25.4704 61.7502 25.489 61.7907 25.5366Z" fill="var(--fill-0, #99C63F)"/>
<path id="Vector_55" d="M61.6851 25.4312C61.661 25.44 61.6297 25.4198 61.588 25.373C61.611 25.365 61.6445 25.3836 61.6851 25.4312Z" fill="var(--fill-0, #99C63F)"/>
<path id="Vector_56" d="M61.58 25.3255C61.5557 25.3344 61.5244 25.3143 61.4827 25.2675C61.5059 25.2594 61.5395 25.2779 61.58 25.3255Z" fill="var(--fill-0, #99C63F)"/>
<path id="Vector_57" d="M61.4747 25.2198C61.4502 25.2289 61.419 25.2088 61.3774 25.162C61.4007 25.1538 61.4343 25.1722 61.4747 25.2198Z" fill="var(--fill-0, #99C63F)"/>
<path id="Vector_58" d="M61.3693 25.1142C61.3446 25.1234 61.3133 25.1033 61.2718 25.0566C61.2953 25.0483 61.329 25.0666 61.3693 25.1142Z" fill="var(--fill-0, #99C63F)"/>
<path id="Vector_59" d="M61.2641 25.0085C61.2393 25.0178 61.208 24.9978 61.1665 24.9511C61.19 24.9427 61.2238 24.961 61.2641 25.0085Z" fill="var(--fill-0, #99C63F)"/>
<path id="Vector_60" d="M61.1585 24.9031C61.1337 24.9123 61.1024 24.8923 61.0609 24.8456C61.0844 24.8373 61.1182 24.8555 61.1585 24.9031Z" fill="var(--fill-0, #99C63F)"/>
<path id="Vector_61" d="M61.0531 24.7974C61.0282 24.8068 60.9968 24.7868 60.9553 24.7402C60.979 24.7316 61.0128 24.7498 61.0531 24.7974Z" fill="var(--fill-0, #99C63F)"/>
<path id="Vector_62" d="M60.9479 24.6917C60.9227 24.7012 60.8914 24.6812 60.85 24.6345C60.8739 24.626 60.9078 24.6441 60.9479 24.6917Z" fill="var(--fill-0, #99C63F)"/>
<path id="Vector_63" d="M60.8423 24.5863C60.8171 24.5958 60.7859 24.5757 60.7444 24.529C60.7682 24.5205 60.8021 24.5387 60.8423 24.5863Z" fill="var(--fill-0, #99C63F)"/>
<path id="Vector_64" d="M60.7366 24.481C60.7116 24.4903 60.6803 24.4702 60.6389 24.4234C60.6626 24.415 60.6964 24.4333 60.7366 24.481Z" fill="var(--fill-0, #99C63F)"/>
<path id="Vector_65" d="M69.8234 33.5527C69.8028 33.5619 69.7652 33.5445 69.7128 33.4994C69.7341 33.4898 69.7703 33.508 69.8234 33.5527Z" fill="var(--fill-0, #99C63F)"/>
<path id="Vector_66" d="M12.9115 21.4497C12.9205 21.4742 12.9002 21.5054 12.8534 21.5471C12.8453 21.5239 12.8638 21.4901 12.9115 21.4497Z" fill="var(--fill-0, #99C63F)"/>
<path id="Vector_67" d="M60.6311 24.3757C60.6063 24.3849 60.5751 24.3648 60.5335 24.318C60.557 24.3097 60.5908 24.328 60.6311 24.3757Z" fill="var(--fill-0, #99C63F)"/>
<path id="Vector_68" d="M0.603387 41.2119C0.623648 41.2077 0.653896 41.2309 0.694387 41.2815C0.674213 41.2856 0.643793 41.2624 0.603387 41.2119Z" fill="var(--fill-0, #528930)"/>
<path id="Vector_69" d="M12.8056 21.5578C12.8087 21.5829 12.7795 21.6141 12.7181 21.653C12.715 21.6285 12.7442 21.5963 12.8056 21.5578Z" fill="var(--fill-0, #99C63F)"/>
<path id="Vector_70" d="M12.5933 21.7435C12.5975 21.7653 12.5726 21.8066 12.5123 21.86C12.5061 21.8357 12.5351 21.7994 12.5933 21.7435Z" fill="var(--fill-0, #99C63F)"/>
<path id="Vector_71" d="M11.6459 22.7038C11.6504 22.724 11.628 22.7613 11.5742 22.8103C11.5682 22.7883 11.5936 22.7546 11.6459 22.7038Z" fill="var(--fill-0, #99C63F)"/>
<path id="Vector_72" d="M11.2255 23.1293C11.2329 23.1492 11.2143 23.1846 11.1684 23.2337C11.1605 23.2132 11.18 23.179 11.2255 23.1293Z" fill="var(--fill-0, #99C63F)"/>
<path id="Vector_73" d="M11.1206 23.2468C11.1246 23.2691 11.0996 23.3002 11.045 23.3402C11.0409 23.3179 11.0662 23.2867 11.1206 23.2468Z" fill="var(--fill-0, #99C63F)"/>
<path id="Vector_74" d="M70.522 34.7151C70.4904 34.7285 70.4675 34.7061 70.446 34.6516C70.4665 34.6482 70.4943 34.6682 70.522 34.7151Z" fill="var(--fill-0, #99C63F)"/>
<path id="Vector_75" d="M0.462179 33.9993C0.470631 34.0304 0.446856 34.061 0.394538 34.1001C0.387315 34.0721 0.408635 34.0354 0.462179 33.9993Z" fill="var(--fill-0, #99C63F)"/>
<path id="Vector_76" d="M70.0284 33.7632C70.0074 33.767 69.9707 33.7423 69.9237 33.685C69.9465 33.6799 69.9797 33.7073 70.0284 33.7632Z" fill="var(--fill-0, #99C63F)"/>
<path id="Vector_77" d="M59.9955 23.7424C59.9701 23.7457 59.9389 23.7168 59.9001 23.6556C59.9249 23.6523 59.9573 23.6813 59.9955 23.7424Z" fill="var(--fill-0, #99C63F)"/>
<path id="Vector_78" d="M69.7018 33.4478C69.6775 33.4567 69.6462 33.4366 69.6047 33.3899C69.6279 33.3818 69.6613 33.4003 69.7018 33.4478Z" fill="var(--fill-0, #99C63F)"/>
<path id="Vector_79" d="M69.5965 33.3423C69.5722 33.3512 69.5409 33.3311 69.4994 33.2844C69.5226 33.2762 69.556 33.2948 69.5965 33.3423Z" fill="var(--fill-0, #99C63F)"/>
<path id="Vector_80" d="M69.4887 33.2367C69.464 33.2405 69.4329 33.2131 69.3943 33.1544C69.4186 33.1507 69.4505 33.1781 69.4887 33.2367Z" fill="var(--fill-0, #99C63F)"/>
<path id="Vector_81" d="M60.1035 23.8486C60.079 23.8576 60.0478 23.8375 60.0062 23.7908C60.0294 23.7826 60.0631 23.801 60.1035 23.8486Z" fill="var(--fill-0, #99C63F)"/>
<path id="Vector_82" d="M60.2086 23.9541C60.1841 23.9631 60.1529 23.9429 60.1113 23.8961C60.1346 23.888 60.1682 23.9064 60.2086 23.9541Z" fill="var(--fill-0, #99C63F)"/>
<path id="Vector_83" d="M66.762 30.4934C66.7415 30.4973 66.7036 30.4736 66.6544 30.4172C66.677 30.4117 66.7108 30.4387 66.762 30.4934Z" fill="var(--fill-0, #99C63F)"/>
<path id="Vector_84" d="M60.3145 24.0593C60.2897 24.0685 60.2584 24.0483 60.2168 24.0016C60.2404 23.9933 60.2742 24.0116 60.3145 24.0593Z" fill="var(--fill-0, #99C63F)"/>
<path id="Vector_85" d="M65.8167 29.5441C65.7958 29.5536 65.7579 29.5363 65.7048 29.4911C65.7263 29.4812 65.7629 29.4993 65.8167 29.5441Z" fill="var(--fill-0, #99C63F)"/>
<path id="Vector_86" d="M65.6938 29.4393C65.6694 29.4482 65.6381 29.4281 65.5965 29.3812C65.6198 29.3731 65.6533 29.3917 65.6938 29.4393Z" fill="var(--fill-0, #99C63F)"/>
<path id="Vector_87" d="M65.5879 29.3341C65.5638 29.3429 65.5325 29.3226 65.4909 29.2758C65.514 29.2678 65.5474 29.2865 65.5879 29.3341Z" fill="var(--fill-0, #99C63F)"/>
<path id="Vector_88" d="M65.4823 29.2288C65.4583 29.2374 65.427 29.2172 65.3853 29.1703C65.4083 29.1624 65.4416 29.1812 65.4823 29.2288Z" fill="var(--fill-0, #99C63F)"/>
<path id="Vector_89" d="M65.3748 29.1232C65.3506 29.1269 65.3195 29.0997 65.2805 29.0414C65.3044 29.0377 65.3361 29.065 65.3748 29.1232Z" fill="var(--fill-0, #99C63F)"/>
<path id="Vector_90" d="M29.8815 12.3912C29.8815 12.3912 29.8781 12.4082 29.9347 12.41C33.0789 11.7037 36.1856 11.636 39.3093 12.1324C48.2281 14.0215 54.0942 19.3324 56.9279 27.967C57.377 29.3355 57.5018 30.8104 57.783 32.3252C57.7935 33.6825 57.7975 34.9509 57.8015 36.2192C57.2906 41.7358 55.0888 46.47 51.2003 50.4114C49.5871 52.0464 47.7215 53.35 45.6469 54.4569C45.5926 54.4782 45.5429 54.4807 45.5125 54.4482C45.2744 54.3995 45.0666 54.3694 44.8589 54.3693C39.2074 54.3668 33.5559 54.3718 27.9044 54.3631C26.9084 54.3615 25.9124 54.3048 24.9165 54.2736C23.3514 53.5288 21.9719 52.5051 20.6756 51.3742C16.8665 48.0512 14.4142 43.9134 13.3246 38.9744C13.2078 38.4448 13.1278 37.9071 13.0135 37.2971C12.9409 36.5388 12.8854 35.8566 12.83 35.1743C12.8338 35.1255 12.8375 35.0766 12.8377 34.9429C12.8315 34.4003 12.8288 33.9425 12.8261 33.4846C12.832 33.4035 12.8379 33.3224 12.8438 33.1572C12.8683 32.7891 12.8926 32.5052 12.9169 32.2213C12.9224 32.2014 12.9279 32.1816 12.9364 32.0842C12.9494 31.7445 12.9593 31.4823 12.9693 31.2201C13.2365 30.1016 13.4291 28.9587 13.7831 27.8683C16.2702 20.2059 21.3651 15.1465 29.0442 12.697C29.1778 12.6544 29.3134 12.6184 29.5203 12.5494C29.6888 12.4767 29.7852 12.434 29.8815 12.3912ZM22.5453 46.674C22.5453 46.674 22.5507 46.6824 22.6101 46.6696C22.6284 46.6355 22.6467 46.6014 22.6548 46.5668C22.6548 46.5668 22.6564 46.5768 22.7157 46.5645C22.734 46.5302 22.7522 46.4959 22.7602 46.4611C22.7602 46.4611 22.7616 46.4712 22.8203 46.4578C22.8388 46.4238 22.8573 46.3898 22.8663 46.3527C22.8663 46.3527 22.8644 46.3625 22.9267 46.3496C22.9537 46.3174 22.9807 46.2852 23.045 46.2426C23.0687 46.2268 23.0801 46.2046 23.1339 46.1415C23.1605 46.1079 23.1872 46.0743 23.2742 46.0099C24.5429 44.7168 25.8116 43.4238 27.1318 42.0947C27.1559 42.0384 27.1799 41.9821 27.1944 41.9205C27.1944 41.9205 27.1898 41.9304 27.2525 41.9149C27.272 41.8769 27.2915 41.839 27.3689 41.7593C27.9204 40.5142 28.4719 39.2692 29.0474 37.9701C30.0553 38.5746 31.0335 39.1493 31.9917 39.7558C32.083 39.8136 32.1171 40.0993 32.0614 40.2295C31.6967 41.0827 31.3322 41.9391 30.9021 42.7602C30.6304 43.279 30.3101 43.8034 29.8994 44.2127C28.5076 45.5999 27.0481 46.9191 25.6512 48.3013C25.0331 48.9129 24.5029 49.6133 23.8975 50.3143C24.3051 50.5775 24.8474 50.9537 25.414 51.2887C27.3412 52.4285 29.3949 53.2438 31.6376 53.7033C31.6997 53.7105 31.7618 53.7178 31.8682 53.7842C31.9633 53.8016 32.0585 53.8191 32.23 53.8408C32.3058 53.8371 32.3817 53.8335 32.4755 53.8674C32.5057 53.8577 32.5359 53.848 32.6469 53.8299C32.7972 53.875 32.9476 53.92 33.151 54.014C33.307 53.9926 33.463 53.9712 33.6987 53.9388C33.7783 53.9471 33.858 53.9554 33.9607 54.0441C34.0517 54.0813 34.1424 54.1499 34.2338 54.1508C35.0572 54.1591 35.8834 54.195 36.7034 54.1416C37.2637 54.1052 37.8156 53.9391 38.4463 53.7961C39.2307 53.6169 40.0152 53.4377 40.8724 53.2392C40.9575 53.1949 41.0425 53.1507 41.172 53.1073C41.172 53.1073 41.2158 53.0998 41.2977 53.1106C41.5903 53.0047 41.883 52.8987 42.1663 52.7938C42.1663 52.7938 42.1692 52.8028 42.2472 52.796C42.4699 52.6913 42.6925 52.5866 42.906 52.4756C42.906 52.4756 42.9089 52.4863 42.9902 52.4951C43.3159 52.3472 43.6416 52.1994 43.9599 52.0492C43.9599 52.0492 43.9595 52.0571 44.0227 52.048C44.0748 52.0141 44.1269 51.9802 44.1711 51.9445C44.1711 51.9445 44.1705 51.9526 44.2341 51.9435C44.2862 51.9094 44.3382 51.8752 44.3822 51.8393C44.3822 51.8393 44.3816 51.8476 44.4445 51.8374C44.4962 51.8031 44.548 51.7688 44.5925 51.7319C44.5925 51.7319 44.5922 51.7396 44.654 51.7289C44.7055 51.6951 44.757 51.6614 44.8029 51.6242C44.8029 51.6242 44.8042 51.6307 44.8712 51.6168C44.9875 51.5468 45.1037 51.4768 45.2906 51.3905C46.9535 50.3818 48.4808 49.2074 49.8087 47.7067C49.8281 47.6778 49.8475 47.6489 49.9281 47.5851C51.9813 45.2823 53.4712 42.6595 54.2273 39.6673C54.5372 38.4411 54.6171 37.1568 54.8199 35.8118C54.8561 35.6805 54.9278 35.548 54.9231 35.4182C54.8783 34.1788 54.8488 32.9377 54.7534 31.7018C54.7118 31.1622 54.5278 30.6335 54.4179 30.1071C54.4179 30.1071 54.4258 30.0981 54.4554 30.0192C54.4324 29.9096 54.4095 29.8001 54.3893 29.6083C54.3614 29.5069 54.3344 29.4053 54.3056 29.3042C52.4209 22.7036 48.2874 18.1752 41.7677 15.7514C40.9162 15.545 40.0647 15.3385 39.1678 15.1234C39.1678 15.1234 39.1217 15.1231 39.0838 15.0652C38.9158 15.0518 38.7477 15.0384 38.5334 15.0184C38.5334 15.0184 38.4867 15.0182 38.4446 14.9562C38.2099 14.9475 37.9751 14.9387 37.6931 14.916C37.6931 14.916 37.6439 14.9125 37.5932 14.843C36.4188 14.8068 35.2439 14.7333 34.0702 14.7496C33.4596 14.758 32.8512 14.9248 32.1558 15.0249C31.4878 15.1441 30.8026 15.2041 30.1543 15.3916C24.0492 17.158 19.7187 20.9632 17.2025 26.7991C16.3719 28.7255 15.9044 30.7533 15.7993 32.955C15.8025 33.7604 15.8057 34.5659 15.7929 35.4656C16.104 40.3212 17.946 44.5013 21.3113 48.0857C21.7204 47.6322 22.0829 47.2304 22.5006 46.7886C22.5185 46.7488 22.5363 46.709 22.5453 46.674Z" fill="var(--fill-0, #FCFAEE)"/>
<path id="Vector_91" d="M24.9378 54.3004C25.9124 54.3048 26.9083 54.3615 27.9044 54.3631C33.5558 54.3718 39.2073 54.3668 44.8588 54.3693C45.0666 54.3694 45.2743 54.3995 45.5066 54.4697C45.531 54.5237 45.5203 54.5669 45.5203 54.5669C45.5203 54.5669 45.5299 54.5779 45.4857 54.574C42.2064 54.5769 38.9712 54.5837 35.7361 54.5905C35.0617 54.5846 34.3873 54.5786 33.615 54.5765C30.7383 54.5764 27.9596 54.5724 25.1808 54.5684C25.1808 54.5684 25.1932 54.5708 25.1948 54.5647C25.1174 54.4815 25.0383 54.4043 24.9378 54.3004Z" fill="var(--fill-0, #FEFDF9)"/>
<path id="Vector_92" d="M39.2989 12.0968C36.1855 11.636 33.0787 11.7037 29.9426 12.4131C30.6282 12.2288 31.3534 11.9482 32.0983 11.878C33.5705 11.7394 35.0545 11.6527 36.5321 11.6704C37.4523 11.6814 38.3698 11.923 39.2989 12.0968Z" fill="var(--fill-0, #99C63F)"/>
<path id="Vector_93" d="M57.8411 36.2081C57.7975 34.9509 57.7935 33.6825 57.7925 32.3698C57.859 32.4123 57.977 32.4988 57.9778 32.5864C57.989 33.7336 57.985 34.8809 57.978 36.0282C57.9777 36.0847 57.9146 36.1408 57.8411 36.2081Z" fill="var(--fill-0, #99C63F)"/>
<path id="Vector_94" d="M12.7855 33.4945C12.8286 33.9424 12.8313 34.4003 12.8301 34.9067C12.4531 34.4911 12.6134 33.997 12.7855 33.4945Z" fill="var(--fill-0, #99C63F)"/>
<path id="Vector_95" d="M12.8 35.2057C12.8854 35.8566 12.9408 36.5388 12.9837 37.2725C12.9041 36.6283 12.8372 35.9327 12.8 35.2057Z" fill="var(--fill-0, #99C63F)"/>
<path id="Vector_96" d="M12.879 32.2318C12.8925 32.5052 12.8682 32.7891 12.8375 33.1169C12.8345 32.8546 12.8378 32.5484 12.879 32.2318Z" fill="var(--fill-0, #99C63F)"/>
<path id="Vector_97" d="M12.9397 31.254C12.9593 31.4823 12.9493 31.7445 12.9323 32.0536C12.9203 31.8296 12.9153 31.5588 12.9397 31.254Z" fill="var(--fill-0, #99C63F)"/>
<path id="Vector_98" d="M29.8371 12.3901C29.7851 12.434 29.6888 12.4767 29.5522 12.5293C29.6056 12.4891 29.6992 12.439 29.8371 12.3901Z" fill="var(--fill-0, #99C63F)"/>
<path id="Vector_99" d="M45.5581 54.5711C45.5203 54.5669 45.531 54.5236 45.5369 54.5022C45.5428 54.4807 45.5925 54.4782 45.6173 54.4784C45.6422 54.4786 45.656 54.5279 45.664 54.5522C45.6467 54.5762 45.6213 54.5758 45.5581 54.5711Z" fill="var(--fill-0, #63A437)"/>
<path id="Vector_100" d="M41.6329 57.7251C43.3953 58.2278 44.2348 59.5145 44.6299 61.1331C45.0792 62.9734 45.0505 64.8241 44.4504 66.636C43.8011 68.5964 42.2068 69.708 40.1805 69.655C38.3069 69.606 36.7987 68.3585 36.2383 66.423C35.713 64.6084 35.6999 62.788 36.1663 60.9679C36.8316 58.3715 38.9789 57.0947 41.6329 57.7251ZM40.9469 68.0076C41.95 67.7384 42.4106 66.9759 42.6771 66.0617C43.0665 64.7262 43.0901 63.3611 42.8716 61.9993C42.7867 61.4704 42.6153 60.941 42.3954 60.4513C42.0085 59.5897 41.2931 59.1317 40.3499 59.1395C39.419 59.1472 38.7258 59.6406 38.3781 60.4808C37.532 62.5251 37.4963 64.6146 38.313 66.6713C38.7607 67.7985 39.6069 68.1901 40.9469 68.0076Z" fill="var(--fill-0, #336783)"/>
<path id="Vector_101" d="M31.9951 57.7573C33.4178 58.2937 34.3241 59.2026 34.3497 60.7617C34.3713 62.0749 33.6548 62.9104 32.4108 63.4401C32.6112 63.513 32.7352 63.5541 32.856 63.6028C33.9134 64.029 34.5165 64.8187 34.6574 65.9393C34.8082 67.1383 34.3878 68.1162 33.4115 68.8362C31.5769 70.1893 28.3787 69.8588 26.8947 68.1573C26.4504 67.6478 26.1631 67.0593 26.1384 66.2919C26.7192 66.2919 27.2605 66.271 27.7978 66.3078C27.9195 66.3162 28.0605 66.507 28.1365 66.6447C28.8073 67.8605 30.2151 68.3964 31.5154 67.9177C32.3125 67.6242 32.6896 67.1258 32.6955 66.3581C32.702 65.5192 32.2985 64.8636 31.5093 64.6222C31.0153 64.4711 30.4788 64.4539 29.9594 64.3928C29.7551 64.3688 29.5456 64.3889 29.3315 64.3889C29.3028 64.2504 29.283 64.1675 29.2685 64.0835C29.0604 62.8749 29.0795 62.8511 30.2805 62.8118C31.7833 62.7627 32.6817 61.662 32.3012 60.3486C32.0223 59.3858 31.1786 59.0951 30.2055 59.1463C29.3119 59.1933 28.6398 59.6759 28.2998 60.5113C28.1465 60.8878 27.9494 61.0433 27.5589 60.9991C27.3854 60.9794 27.2077 60.996 27.0319 60.9958C26.2863 60.995 26.2515 60.9637 26.4543 60.2629C26.8849 58.7755 27.9234 57.8995 29.405 57.6735C30.2315 57.5474 31.1027 57.7138 31.9951 57.7573Z" fill="var(--fill-0, #336783)"/>
<path id="Vector_102" d="M35.7679 54.62C38.9712 54.5837 42.2063 54.5769 45.4912 54.5692C45.3964 54.607 45.2519 54.679 45.1072 54.6793C42.0908 54.6858 39.0744 54.6844 36.0579 54.6826C35.9719 54.6825 35.8858 54.661 35.7679 54.62Z" fill="var(--fill-0, #63A437)"/>
<path id="Vector_103" d="M25.2101 54.602C27.9594 54.5724 30.7381 54.5764 33.5657 54.5849C33.4839 54.6212 33.3534 54.68 33.2227 54.6803C30.6639 54.6855 28.1052 54.6844 25.5464 54.6815C25.4441 54.6814 25.3418 54.6516 25.2101 54.602Z" fill="var(--fill-0, #63A437)"/>
<path id="Vector_104" d="M31.6033 53.6496C29.3948 53.2438 27.3411 52.4285 25.4139 51.2887C24.8473 50.9537 24.305 50.5775 23.8974 50.3143C24.5028 49.6133 25.033 48.9129 25.6511 48.3013C27.0481 46.9191 28.5075 45.5999 29.8993 44.2127C30.31 43.8034 30.6303 43.279 30.902 42.7602C31.3321 41.9391 31.6966 41.0827 32.0613 40.2295C32.117 40.0993 32.0829 39.8136 31.9916 39.7558C31.0334 39.1493 30.0552 38.5746 29.0473 37.97C28.4718 39.2692 27.9203 40.5142 27.3128 41.795C27.2344 41.8639 27.2121 41.8971 27.1897 41.9303C27.1897 41.9303 27.1943 41.9205 27.1689 41.936C27.1224 42.0113 27.1013 42.071 27.0802 42.1308C25.8115 43.4238 24.5428 44.7168 23.2118 46.0367C23.126 46.1011 23.1026 46.1386 23.0791 46.1761C23.08 46.2046 23.0686 46.2268 22.995 46.2554C22.9182 46.2997 22.8913 46.3311 22.8643 46.3625C22.8643 46.3625 22.8662 46.3527 22.8438 46.3642C22.8014 46.4076 22.7815 46.4394 22.7615 46.4712C22.7615 46.4712 22.7601 46.4611 22.738 46.4712C22.6961 46.5132 22.6762 46.545 22.6563 46.5768C22.6563 46.5768 22.6547 46.5668 22.6326 46.5769C22.5906 46.6188 22.5706 46.6506 22.5506 46.6824C22.5506 46.6824 22.5452 46.6739 22.5207 46.6891C22.4792 46.7457 22.4623 46.7872 22.4453 46.8286C22.0828 47.2304 21.7203 47.6322 21.3112 48.0857C17.9459 44.5013 16.1039 40.3212 15.8292 35.3862C15.8473 34.4906 15.8289 33.6743 15.8106 32.858C15.9043 30.7533 16.3718 28.7255 17.2024 26.7991C19.7186 20.9632 24.0491 17.158 30.1542 15.3916C30.8025 15.204 31.4877 15.1441 32.2472 15.0234C34.107 14.9855 35.8754 14.949 37.6438 14.9125C37.6438 14.9125 37.693 14.916 37.7466 14.9514C38.029 14.9973 38.2578 15.0078 38.4866 15.0182C38.4866 15.0182 38.5333 15.0184 38.5835 15.0516C38.7963 15.0976 38.9589 15.1103 39.1216 15.1231C39.1216 15.1231 39.1677 15.1234 39.215 15.1572C40.0445 15.409 40.8259 15.6299 41.6104 15.8395C41.6771 15.8573 41.7639 15.7999 41.8414 15.7775C48.2873 18.1752 52.4208 22.7036 54.3055 29.3042C54.3343 29.4053 54.3613 29.5069 54.3615 29.6727C54.3644 29.8575 54.395 29.9778 54.4257 30.0981C54.4257 30.0981 54.4178 30.1071 54.4102 30.1497C54.4069 30.3325 54.4038 30.4733 54.4166 30.6127C54.5497 32.0711 54.6909 33.5287 54.8156 34.9878C54.8413 35.2889 54.8077 35.5951 54.8015 35.8989C54.617 37.1568 54.5371 38.4411 54.2272 39.6673C53.4711 42.6595 51.9812 45.2823 49.8809 47.5851C49.8099 47.6342 49.786 47.6833 49.7621 47.7325C48.4807 49.2074 46.9534 50.3818 45.2348 51.373C45.0542 51.4473 44.9291 51.539 44.8041 51.6307C44.8041 51.6307 44.8028 51.6242 44.7727 51.6285C44.6925 51.6684 44.6423 51.704 44.5921 51.7396C44.5921 51.7396 44.5924 51.7319 44.5626 51.735C44.4824 51.7746 44.4319 51.8111 44.3815 51.8476C44.3815 51.8476 44.3821 51.8392 44.3525 51.8414C44.2721 51.8798 44.2213 51.9162 44.1704 51.9526C44.1704 51.9526 44.171 51.9445 44.1415 51.9468C44.0611 51.9851 44.0102 52.0211 43.9594 52.0571C43.9594 52.0571 43.9598 52.0492 43.9215 52.0492C43.5584 52.1949 43.2336 52.3406 42.9088 52.4863C42.9088 52.4863 42.9059 52.4756 42.87 52.4746C42.6123 52.5833 42.3907 52.6931 42.1691 52.8028C42.1691 52.8028 42.1662 52.7938 42.1278 52.791C41.7982 52.8921 41.5069 52.996 41.2157 53.0998C41.2157 53.0998 41.1719 53.1073 41.1089 53.1054C40.9637 53.1551 40.8816 53.2068 40.7995 53.2585C40.0151 53.4377 39.2306 53.6169 38.3656 53.8121C38.1706 53.8293 38.0561 53.8305 37.9147 53.8026C37.6621 53.8221 37.4366 53.8706 37.1821 53.9277C37.1334 53.9332 37.1135 53.9301 37.0607 53.8992C36.8718 53.8603 36.716 53.8445 36.5598 53.8388C35.5839 53.803 34.6081 53.7657 33.6321 53.7368C33.102 53.721 32.5715 53.7209 32.0119 53.7152C31.9649 53.7083 31.9473 53.6997 31.9211 53.659C31.8095 53.6344 31.7064 53.642 31.6033 53.6496ZM26.7684 25.9973C26.7684 25.9973 26.7787 25.9979 26.7245 26.0178C26.7042 26.0495 26.6839 26.0812 26.6603 26.103C26.6603 26.103 26.6706 26.1009 26.6149 26.1288C26.5968 26.1653 26.5786 26.2018 26.5327 26.2952C26.408 26.4072 26.2834 26.5191 26.0995 26.6523C26.0765 26.6862 26.0535 26.7201 26.0011 26.8153C25.7732 27.0355 25.5452 27.2557 25.2588 27.4931C25.2344 27.5243 25.21 27.5555 25.1952 27.5768C25.1952 27.5768 25.2047 27.5869 25.1633 27.591C25.152 27.5984 25.1407 27.6057 25.1294 27.6131C25.1431 27.6342 25.1569 27.6552 25.1488 27.7539C24.7727 28.6002 24.9297 29.3452 25.5848 29.8224C26.2227 30.2871 27.0289 30.187 27.6817 29.5481C28.6364 28.6137 29.6432 27.7234 30.5162 26.7174C31.2068 25.9216 31.8535 25.6928 32.8097 26.2119C33.4106 26.538 33.4671 26.5229 33.0795 27.1C31.8265 28.9661 30.5693 30.8294 29.3241 32.7007C28.4748 33.9769 28.5608 35.3955 29.6307 36.5024C30.1491 37.0387 30.7764 37.4819 31.3967 37.9052C32.8596 38.9035 34.3479 39.8645 35.8392 40.9195C35.9469 40.9699 36.0545 41.0204 36.1547 41.0737C36.1547 41.0737 36.1545 41.0657 36.1768 41.1177C36.208 41.138 36.2391 41.1582 36.2598 41.178C36.2598 41.178 36.2614 41.1676 36.2823 41.2215C36.3139 41.242 36.3455 41.2624 36.3668 41.2849C36.3668 41.2849 36.3661 41.2744 36.392 41.3297C36.4272 41.3486 36.4624 41.3674 36.5409 41.4035C36.5668 41.4251 36.5788 41.4527 36.5752 41.5718C36.5429 41.945 36.5157 42.3187 36.4762 42.6911C36.4507 42.9317 36.4071 43.1704 36.3695 43.3996C36.3695 43.3996 36.38 43.3995 36.3145 43.4344C36.2902 43.6308 36.2659 43.8273 36.2409 44.1037C35.8428 45.4301 35.4325 46.753 35.0558 48.0855C34.9723 48.3806 34.982 48.71 34.9923 49.0221C35.0185 49.8213 36.4416 50.6972 37.0206 50.435C37.7315 50.1132 38.2351 49.6326 38.4555 48.8178C39.0962 46.4497 39.7936 44.0967 40.4839 41.7423C40.8863 40.3698 40.727 39.8591 39.593 38.9664C38.461 38.0753 37.3347 37.1766 36.2179 36.2665C35.3348 35.5468 35.2935 35.1647 35.9477 34.246C35.9884 34.1888 36.0273 34.1301 36.0696 34.0741C36.9165 32.9527 37.7628 31.8308 38.6125 30.7115C38.6928 30.6057 38.7947 30.5164 38.9228 30.3812C39.061 30.5781 39.1736 30.7297 39.277 30.8873C39.8836 31.8122 40.4773 32.7457 41.0968 33.6618C41.5242 34.2937 42.3106 34.653 42.8522 34.4052C43.2354 34.2298 43.5623 33.9168 43.8894 33.6362C45.3831 32.3547 46.867 31.0617 48.3566 29.7754C48.9285 29.2815 49.0879 28.6615 48.8498 27.9677C48.5077 26.9708 47.3271 26.6264 46.4843 27.3102C45.4068 28.1844 44.3803 29.1215 43.3324 30.0321C42.8296 30.4691 42.7343 30.4619 42.3678 29.8946C41.7867 28.9949 41.1527 28.1216 40.6561 27.1767C39.8934 25.7251 38.8365 24.7098 37.1839 24.4049C37.152 24.399 37.1242 24.3706 37.068 24.2774C36.9967 24.2289 36.9318 24.1616 36.8531 24.1347C35.2202 23.5759 33.5864 23.0196 31.9496 22.4721C31.8538 22.44 31.7316 22.4869 31.5377 22.4962C30.9408 22.3074 30.4396 22.4773 30.0033 22.9012C29.0117 23.8645 28.0185 24.8262 26.9609 25.8037C26.9313 25.835 26.9016 25.8663 26.8754 25.8882C26.8754 25.8882 26.8844 25.8925 26.8301 25.9123C26.81 25.9441 26.7898 25.9758 26.7684 25.9973ZM37.2158 19.1373C37.2158 19.1373 37.2257 19.1426 37.164 19.1713C37.1462 19.2345 37.1284 19.2976 37.1078 19.3509C37.1078 19.3509 37.118 19.3503 37.057 19.38C37.0387 19.4431 37.0204 19.5062 37.0002 19.5604C37.0002 19.5604 37.0092 19.56 36.9494 19.5913C36.9323 19.6546 36.9152 19.7179 36.8976 19.7713C36.8976 19.7713 36.9074 19.7729 36.832 19.8012C36.7174 20.1747 36.5356 20.5437 36.5094 20.9233C36.4879 21.2332 36.6524 21.556 36.771 21.9361C37.2187 23.719 38.816 24.4872 40.1483 24.5926C40.5921 24.6277 41.0799 24.3736 41.5167 24.1814C42.9579 23.5468 43.7315 22.0032 43.4499 20.476C43.2698 19.4997 42.7085 18.7991 41.949 18.1301C41.4267 17.9373 40.9161 17.69 40.3773 17.5736C40.0856 17.5106 39.7456 17.6709 39.3501 17.7592C38.5179 17.9299 37.8981 18.4345 37.2828 19.0546C37.2591 19.0856 37.2354 19.1167 37.2158 19.1373Z" fill="var(--fill-0, #83BD5D)"/>
<path id="Vector_105" d="M37.6183 14.8777C35.8752 14.949 34.1068 14.9855 32.29 15.0211C32.851 14.9248 33.4594 14.758 34.07 14.7496C35.2436 14.7333 36.4186 14.8068 37.6183 14.8777Z" fill="var(--fill-0, #72B345)"/>
<path id="Vector_106" d="M54.8105 35.8554C54.8076 35.5951 54.8412 35.2889 54.8155 34.9878C54.6908 33.5287 54.5495 32.0711 54.4164 30.6127C54.4037 30.4733 54.4067 30.3325 54.4053 30.1461C54.5275 30.6335 54.7115 31.1622 54.7532 31.7018C54.8485 32.9377 54.8781 34.1788 54.9229 35.4182C54.9276 35.548 54.8559 35.6805 54.8105 35.8554Z" fill="var(--fill-0, #72B345)"/>
<path id="Vector_107" d="M37.0935 53.927C37.1134 53.9301 37.1333 53.9332 37.2246 53.9304C37.5113 53.8936 37.7265 53.8626 37.9416 53.8316C38.056 53.8305 38.1705 53.8293 38.328 53.8296C37.8154 53.9391 37.2635 54.1052 36.7032 54.1416C35.8831 54.195 35.057 54.1591 34.2336 54.1508C34.1422 54.1499 34.0515 54.0813 33.987 53.9986C35.0402 53.9444 36.0669 53.9357 37.0935 53.927Z" fill="var(--fill-0, #FEFDF9)"/>
<path id="Vector_108" d="M37.0606 53.8992C36.0669 53.9357 35.0403 53.9444 33.9755 53.9584C33.8578 53.9554 33.7781 53.9471 33.6161 53.9326C33.3884 53.9392 33.243 53.9521 33.0977 53.965C32.9474 53.92 32.797 53.8749 32.5798 53.8244C32.4944 53.8225 32.4759 53.8262 32.4574 53.8299C32.3815 53.8335 32.3057 53.8371 32.1806 53.8119C32.1013 53.76 32.0712 53.7368 32.0411 53.7137C32.5714 53.7208 33.1019 53.721 33.632 53.7367C34.608 53.7657 35.5838 53.803 36.5597 53.8388C36.7159 53.8445 36.8717 53.8603 37.0606 53.8992Z" fill="var(--fill-0, #72B345)"/>
<path id="Vector_109" d="M41.8046 15.7645C41.764 15.7999 41.6772 15.8573 41.6104 15.8395C40.826 15.6299 40.0446 15.409 39.2378 15.1616C40.0646 15.3385 40.9162 15.545 41.8046 15.7645Z" fill="var(--fill-0, #72B345)"/>
<path id="Vector_110" d="M15.8048 32.9065C15.8288 33.6743 15.8472 34.4906 15.8372 35.3391C15.8055 34.5659 15.8023 33.7604 15.8048 32.9065Z" fill="var(--fill-0, #63A437)"/>
<path id="Vector_111" d="M42.9494 52.4907C43.2336 52.3406 43.5584 52.1949 43.9253 52.0504C43.6416 52.1994 43.3158 52.3472 42.9494 52.4907Z" fill="var(--fill-0, #72B345)"/>
<path id="Vector_112" d="M41.2568 53.1052C41.507 52.9959 41.7983 52.8921 42.1326 52.7904C41.883 52.8987 41.5903 53.0046 41.2568 53.1052Z" fill="var(--fill-0, #72B345)"/>
<path id="Vector_113" d="M42.208 52.7994C42.3906 52.6931 42.6122 52.5833 42.8744 52.4777C42.6923 52.5866 42.4696 52.6913 42.208 52.7994Z" fill="var(--fill-0, #72B345)"/>
<path id="Vector_114" d="M38.4655 14.9872C38.2577 15.0078 38.0289 14.9973 37.7702 14.9584C37.975 14.9387 38.2097 14.9475 38.4655 14.9872Z" fill="var(--fill-0, #72B345)"/>
<path id="Vector_115" d="M44.8377 51.6237C44.9292 51.539 45.0542 51.4473 45.1996 51.3812C45.1037 51.4768 44.9874 51.5468 44.8377 51.6237Z" fill="var(--fill-0, #72B345)"/>
<path id="Vector_116" d="M39.1027 15.0942C38.9589 15.1104 38.7963 15.0976 38.6067 15.0549C38.7477 15.0384 38.9157 15.0518 39.1027 15.0942Z" fill="var(--fill-0, #72B345)"/>
<path id="Vector_117" d="M31.6204 53.6765C31.7064 53.642 31.8095 53.6344 31.8941 53.6656C31.8583 53.7113 31.8411 53.7182 31.8238 53.725C31.7617 53.7178 31.6996 53.7105 31.6204 53.6765Z" fill="var(--fill-0, #72B345)"/>
<path id="Vector_118" d="M33.1242 53.9895C33.243 53.9521 33.3883 53.9393 33.5763 53.9381C33.4628 53.9712 33.3068 53.9926 33.1242 53.9895Z" fill="var(--fill-0, #FEFDF9)"/>
<path id="Vector_119" d="M54.4404 30.0586C54.3949 29.9778 54.3643 29.8575 54.36 29.7138C54.4093 29.8001 54.4322 29.9096 54.4404 30.0586Z" fill="var(--fill-0, #72B345)"/>
<path id="Vector_120" d="M31.8459 53.7546C31.841 53.7182 31.8582 53.7113 31.9025 53.6979C31.9472 53.6997 31.9648 53.7083 32.0118 53.7152C32.0712 53.7368 32.1013 53.76 32.1424 53.8098C32.0583 53.8191 31.9632 53.8016 31.8459 53.7546Z" fill="var(--fill-0, #FEFDF9)"/>
<path id="Vector_121" d="M40.8359 53.2488C40.8816 53.2068 40.9637 53.1551 41.0866 53.1049C41.0424 53.1507 40.9573 53.1949 40.8359 53.2488Z" fill="var(--fill-0, #72B345)"/>
<path id="Vector_122" d="M27.1061 42.1127C27.1014 42.071 27.1225 42.0113 27.1738 41.9386C27.1799 41.9821 27.1558 42.0384 27.1061 42.1127Z" fill="var(--fill-0, #72B345)"/>
<path id="Vector_123" d="M49.7852 47.7196C49.7859 47.6833 49.8098 47.6342 49.8502 47.6025C49.8473 47.6489 49.8279 47.6778 49.7852 47.7196Z" fill="var(--fill-0, #72B345)"/>
<path id="Vector_124" d="M44.6231 51.7342C44.6424 51.704 44.6925 51.6684 44.7756 51.6302C44.757 51.6614 44.7055 51.6951 44.6231 51.7342Z" fill="var(--fill-0, #72B345)"/>
<path id="Vector_125" d="M44.4129 51.8425C44.4319 51.8111 44.4824 51.7746 44.5662 51.7363C44.5479 51.7688 44.4961 51.8031 44.4129 51.8425Z" fill="var(--fill-0, #72B345)"/>
<path id="Vector_126" d="M43.9909 52.0525C44.0101 52.0211 44.061 51.9851 44.1454 51.9477C44.1267 51.9802 44.0746 52.0141 43.9909 52.0525Z" fill="var(--fill-0, #72B345)"/>
<path id="Vector_127" d="M44.2022 51.948C44.2213 51.9162 44.2721 51.8798 44.3566 51.8423C44.3382 51.8752 44.2861 51.9094 44.2022 51.948Z" fill="var(--fill-0, #72B345)"/>
<path id="Vector_128" d="M22.6859 46.5707C22.6761 46.545 22.696 46.5132 22.7431 46.4715C22.752 46.4959 22.7338 46.5302 22.6859 46.5707Z" fill="var(--fill-0, #72B345)"/>
<path id="Vector_129" d="M22.7908 46.4645C22.7814 46.4394 22.8014 46.4076 22.8485 46.3658C22.8572 46.3898 22.8387 46.4238 22.7908 46.4645Z" fill="var(--fill-0, #72B345)"/>
<path id="Vector_130" d="M22.5803 46.676C22.5706 46.6506 22.5905 46.6188 22.6376 46.5772C22.6465 46.6014 22.6282 46.6355 22.5803 46.676Z" fill="var(--fill-0, #72B345)"/>
<path id="Vector_131" d="M22.4729 46.8086C22.4622 46.7871 22.4791 46.7457 22.525 46.6867C22.5361 46.709 22.5183 46.7488 22.4729 46.8086Z" fill="var(--fill-0, #72B345)"/>
<path id="Vector_132" d="M22.8955 46.3561C22.8913 46.3311 22.9182 46.2997 22.9763 46.2606C22.9806 46.2852 22.9536 46.3174 22.8955 46.3561Z" fill="var(--fill-0, #72B345)"/>
<path id="Vector_133" d="M23.1066 46.1588C23.1027 46.1386 23.1261 46.1011 23.1817 46.0521C23.1872 46.0743 23.1605 46.1079 23.1066 46.1588Z" fill="var(--fill-0, #72B345)"/>
<path id="Vector_134" d="M32.4663 53.8489C32.476 53.8262 32.4947 53.8225 32.5402 53.8286C32.5365 53.8483 32.5059 53.8581 32.4663 53.8489Z" fill="var(--fill-0, #FEFDF9)"/>
<path id="Vector_135" d="M27.221 41.9226C27.212 41.8971 27.2343 41.8639 27.2838 41.8159C27.2913 41.839 27.2718 41.8769 27.221 41.9226Z" fill="var(--fill-0, #72B345)"/>
<path id="Vector_136" d="M40.9053 68.0221C39.6068 68.1901 38.7607 67.7985 38.313 66.6713C37.4963 64.6146 37.532 62.5251 38.378 60.4808C38.7258 59.6406 39.419 59.1472 40.3499 59.1395C41.293 59.1317 42.0084 59.5897 42.3953 60.4512C42.6152 60.941 42.7866 61.4704 42.8715 61.9993C43.0901 63.3611 43.0664 64.7262 42.6771 66.0617C42.4106 66.9759 41.9499 67.7384 40.9053 68.0221Z" fill="var(--fill-0, #83B45E)"/>
<path id="Vector_137" d="M36.5769 41.4864C36.5787 41.4527 36.5667 41.4251 36.5049 41.3681C36.4346 41.3133 36.4003 41.2938 36.3661 41.2744C36.3661 41.2744 36.3668 41.2849 36.3632 41.2557C36.327 41.2069 36.2942 41.1872 36.2614 41.1676C36.2614 41.1676 36.2598 41.178 36.2553 41.1511C36.2187 41.1047 36.1865 41.0852 36.1544 41.0657C36.1544 41.0657 36.1547 41.0737 36.1399 41.0432C36.0254 40.9553 35.9257 40.8979 35.8259 40.8406C34.3479 39.8645 32.8596 38.9035 31.3966 37.9052C30.7763 37.4819 30.1491 37.0387 29.6307 36.5024C28.5608 35.3955 28.4748 33.9769 29.324 32.7007C30.5693 30.8294 31.8264 28.9661 33.0795 27.1C33.4671 26.5229 33.4106 26.5381 32.8096 26.2119C31.8535 25.6929 31.2068 25.9216 30.5162 26.7174C29.6432 27.7234 28.6364 28.6137 27.6817 29.5481C27.0289 30.187 26.2226 30.2871 25.5848 29.8224C24.9297 29.3452 24.7726 28.6002 25.1723 27.6944C25.1959 27.6348 25.2046 27.5869 25.2046 27.5869C25.2046 27.5869 25.1952 27.5769 25.2208 27.5761C25.27 27.5423 25.2937 27.5091 25.3173 27.4759C25.5452 27.2557 25.7731 27.0355 26.0426 26.7705C26.109 26.6941 26.1339 26.6626 26.1587 26.6311C26.2834 26.5191 26.408 26.4072 26.5729 26.2506C26.6324 26.171 26.6515 26.136 26.6706 26.1009C26.6706 26.1009 26.6603 26.103 26.691 26.1003C26.7406 26.0644 26.7597 26.0311 26.7787 25.9979C26.7787 25.9979 26.7683 25.9973 26.7984 25.9956C26.8471 25.9601 26.8658 25.9263 26.8844 25.8925C26.8844 25.8925 26.8754 25.8882 26.9064 25.8872C26.9669 25.8536 26.9964 25.8211 27.026 25.7886C28.0185 24.8262 29.0116 23.8645 30.0032 22.9012C30.4396 22.4773 30.9407 22.3074 31.6162 22.5101C33.4947 23.1336 35.2946 23.7431 37.0945 24.3527C37.1242 24.3706 37.152 24.399 37.1839 24.4049C38.8365 24.7098 39.8933 25.7251 40.6561 27.1767C41.1526 28.1217 41.7867 28.9949 42.3678 29.8946C42.7342 30.4619 42.8296 30.4691 43.3324 30.0321C44.3803 29.1215 45.4068 28.1844 46.4842 27.3102C47.327 26.6264 48.5077 26.9708 48.8498 27.9678C49.0878 28.6615 48.9285 29.2816 48.3565 29.7754C46.8669 31.0618 45.3831 32.3547 43.8894 33.6362C43.5623 33.9169 43.2353 34.2298 42.8522 34.4052C42.3105 34.653 41.5242 34.2937 41.0968 33.6618C40.4773 32.7457 39.8836 31.8122 39.277 30.8873C39.1736 30.7297 39.061 30.5781 38.9227 30.3812C38.7947 30.5164 38.6928 30.6058 38.6125 30.7115C37.7628 31.8308 36.9165 32.9527 36.0696 34.0741C36.0273 34.1302 35.9884 34.1888 35.9476 34.246C35.2935 35.1647 35.3347 35.5469 36.2179 36.2665C37.3347 37.1766 38.461 38.0753 39.593 38.9665C40.7269 39.8591 40.8863 40.3698 40.4839 41.7423C39.7936 44.0968 39.0962 46.4497 38.4555 48.8178C38.235 49.6326 37.7315 50.1132 37.0206 50.4351C36.4416 50.6972 35.0185 49.8213 34.9922 49.0222C34.982 48.71 34.9723 48.3806 35.0557 48.0855C35.4325 46.7531 35.8427 45.4301 36.2543 44.026C36.3052 43.7654 36.3426 43.5824 36.3799 43.3995C36.3799 43.3995 36.3695 43.3996 36.4025 43.3832C36.5055 43.1512 36.5836 42.938 36.6435 42.7198C36.758 42.3029 36.9386 41.8789 36.5769 41.4864Z" fill="var(--fill-0, #FCFAEE)"/>
<path id="Vector_138" d="M41.9614 18.2079C42.7085 18.7991 43.2699 19.4997 43.4499 20.476C43.7316 22.0032 42.9579 23.5468 41.5167 24.1814C41.08 24.3736 40.5921 24.6277 40.1483 24.5926C38.8161 24.4872 37.2187 23.719 36.7425 21.8565C36.7784 21.109 36.8429 20.4409 36.9074 19.7729C36.9074 19.7729 36.8977 19.7713 36.9247 19.7578C36.9709 19.6829 36.9901 19.6214 37.0093 19.56C37.0093 19.56 37.0002 19.5604 37.0272 19.5456C37.0755 19.4707 37.0968 19.4105 37.1181 19.3503C37.1181 19.3503 37.1078 19.3509 37.1381 19.3391C37.1874 19.2657 37.2066 19.2042 37.2258 19.1426C37.2258 19.1426 37.2159 19.1373 37.2454 19.1405C37.2968 19.1081 37.3185 19.0724 37.3402 19.0367C37.8981 18.4345 38.518 17.9299 39.4309 17.7426C40.3989 17.5273 41.1904 17.8154 41.9614 18.2079Z" fill="var(--fill-0, #FCFAEE)"/>
<path id="Vector_139" d="M37.0813 24.315C35.2946 23.7431 33.4947 23.1335 31.6582 22.5105C31.7316 22.4869 31.8538 22.44 31.9496 22.4721C33.5864 23.0195 35.2202 23.5759 36.8532 24.1347C36.9318 24.1616 36.9967 24.2289 37.0813 24.315Z" fill="var(--fill-0, #72B345)"/>
<path id="Vector_140" d="M41.9552 18.169C41.1904 17.8154 40.3989 17.5273 39.4695 17.7283C39.7456 17.6709 40.0856 17.5106 40.3773 17.5736C40.9161 17.69 41.4267 17.9373 41.9552 18.169Z" fill="var(--fill-0, #72B345)"/>
<path id="Vector_141" d="M36.8697 19.787C36.8429 20.4409 36.7784 21.109 36.7242 21.825C36.6525 21.556 36.488 21.2332 36.5094 20.9233C36.5357 20.5437 36.7175 20.1747 36.8697 19.787Z" fill="var(--fill-0, #72B345)"/>
<path id="Vector_142" d="M36.576 41.5291C36.9386 41.8789 36.758 42.3029 36.6435 42.7197C36.5836 42.938 36.5055 43.1512 36.4036 43.3883C36.407 43.1704 36.4507 42.9317 36.4762 42.6912C36.5157 42.3187 36.5428 41.945 36.576 41.5291Z" fill="var(--fill-0, #72B345)"/>
<path id="Vector_143" d="M37.9146 53.8026C37.7265 53.8626 37.5113 53.8936 37.2536 53.9219C37.4365 53.8706 37.6621 53.8221 37.9146 53.8026Z" fill="var(--fill-0, #72B345)"/>
<path id="Vector_144" d="M36.3473 43.417C36.3426 43.5824 36.3052 43.7654 36.2547 43.986C36.2659 43.8273 36.2902 43.6309 36.3473 43.417Z" fill="var(--fill-0, #72B345)"/>
<path id="Vector_145" d="M35.8325 40.88C35.9256 40.8979 36.0253 40.9553 36.1436 41.0417C36.0544 41.0204 35.9467 40.9699 35.8325 40.88Z" fill="var(--fill-0, #72B345)"/>
<path id="Vector_146" d="M37.0875 19.3652C37.0967 19.4105 37.0755 19.4707 37.0281 19.55C37.0204 19.5062 37.0387 19.4431 37.0875 19.3652Z" fill="var(--fill-0, #72B345)"/>
<path id="Vector_147" d="M37.1949 19.1569C37.2066 19.2042 37.1875 19.2657 37.1395 19.344C37.1284 19.2976 37.1463 19.2344 37.1949 19.1569Z" fill="var(--fill-0, #72B345)"/>
<path id="Vector_148" d="M36.9793 19.5757C36.99 19.6214 36.9708 19.6829 36.9248 19.7628C36.9151 19.7179 36.9323 19.6546 36.9793 19.5757Z" fill="var(--fill-0, #72B345)"/>
<path id="Vector_149" d="M36.2719 41.1946C36.2942 41.1872 36.327 41.2068 36.3685 41.2547C36.3455 41.2624 36.3139 41.242 36.2719 41.1946Z" fill="var(--fill-0, #72B345)"/>
<path id="Vector_150" d="M37.3113 19.0456C37.3183 19.0724 37.2966 19.1081 37.2432 19.1457C37.2352 19.1167 37.2589 19.0856 37.3113 19.0456Z" fill="var(--fill-0, #72B345)"/>
<path id="Vector_151" d="M26.9933 25.7961C26.9963 25.8211 26.9668 25.8536 26.9046 25.8919C26.9015 25.8663 26.9311 25.835 26.9933 25.7961Z" fill="var(--fill-0, #72B345)"/>
<path id="Vector_152" d="M25.1845 27.5889C25.2055 27.5869 25.1967 27.6353 25.1838 27.6563C25.1571 27.656 25.1432 27.6347 25.1293 27.6134C25.1407 27.6059 25.1522 27.5985 25.1845 27.5889Z" fill="var(--fill-0, #72B345)"/>
<path id="Vector_153" d="M25.288 27.4845C25.2937 27.5091 25.2701 27.5422 25.216 27.5811C25.21 27.5555 25.2344 27.5243 25.288 27.4845Z" fill="var(--fill-0, #72B345)"/>
<path id="Vector_154" d="M26.1291 26.6417C26.1339 26.6626 26.1091 26.6941 26.0573 26.7398C26.0535 26.7201 26.0765 26.6862 26.1291 26.6417Z" fill="var(--fill-0, #72B345)"/>
<path id="Vector_155" d="M26.6428 26.1148C26.6516 26.1359 26.6324 26.171 26.5869 26.2222C26.5786 26.2018 26.5968 26.1653 26.6428 26.1148Z" fill="var(--fill-0, #72B345)"/>
<path id="Vector_156" d="M26.7515 26.0078C26.7596 26.0311 26.7405 26.0643 26.6925 26.1053C26.6838 26.0812 26.7041 26.0495 26.7515 26.0078Z" fill="var(--fill-0, #72B345)"/>
<path id="Vector_157" d="M26.8572 25.9024C26.8657 25.9263 26.847 25.9601 26.799 26.0007C26.7897 25.9758 26.8099 25.9441 26.8572 25.9024Z" fill="var(--fill-0, #72B345)"/>
<path id="Vector_158" d="M36.3791 41.302C36.4004 41.2938 36.4346 41.3133 36.4833 41.3595C36.4624 41.3674 36.4272 41.3486 36.3791 41.302Z" fill="var(--fill-0, #72B345)"/>
<path id="Vector_159" d="M36.1656 41.0917C36.1866 41.0852 36.2187 41.1047 36.2605 41.1513C36.2391 41.1582 36.208 41.138 36.1656 41.0917Z" fill="var(--fill-0, #72B345)"/>
</g>
</svg>
