<svg preserveAspectRatio="none" width="100%" height="100%" overflow="visible" style="display: block;" viewBox="0 0 37 37" fill="none" xmlns="http://www.w3.org/2000/svg">
<g id="Group 3">
<path id="Vector" d="M14.8001 24.05H22.1999V37H14.8001V24.05ZM36.0484 9.48306L19.3988 0.233057C18.8387 -0.0776856 18.1613 -0.0776856 17.6012 0.233057L0.951555 9.48306C0.0590924 9.97898 -0.263387 11.1054 0.233429 11.9988C0.569458 12.6058 1.20098 12.9212 1.85034 12.9224V35.15C1.85034 36.1717 2.67867 37 3.7003 37H11.1002V22.2C11.1002 21.1783 11.9285 20.35 12.9501 20.35H24.0499C25.0715 20.35 25.8998 21.1783 25.8998 22.2V37H33.2997C34.3213 37 35.1497 36.1717 35.1497 35.15V12.9498C35.7995 12.9491 36.4291 12.6062 36.7666 11.9988C37.2634 11.1054 36.9409 9.97898 36.0484 9.48306Z" fill="var(--fill-0, #2F59A1)"/>
</g>
</svg>
